<svg width="609" height="551" viewBox="0 0 609 551" fill="none" xmlns="http://www.w3.org/2000/svg">
<path d="M382.193 15.9033L424.53 56.3018L467.082 284.035H67.9453L382.193 15.9033Z" fill="#FFCF2D"/>
<path d="M424.894 55.9844L382.428 15.459L389.53 8.16186C399.992 -2.58287 418.839 -1.35611 429.707 8.96561C440.575 19.3085 442.479 37.9425 432.018 48.6873L424.894 55.9844Z" fill="white"/>
<path d="M424.915 56.873L381.529 15.4803L389.081 7.71791C394.173 2.47245 401.425 -0.256037 409.512 0.0189265C417.256 0.29389 424.787 3.38194 430.178 8.5005C435.569 13.6191 438.97 20.9585 439.527 28.6151C440.104 36.5891 437.601 43.8651 432.51 49.1105L424.915 56.873ZM383.326 15.438L424.872 55.0751L431.547 48.2433C436.403 43.2728 438.757 36.3353 438.222 28.7209C437.687 21.3603 434.435 14.3382 429.258 9.43114C424.081 4.5241 416.871 1.56295 409.448 1.30914C401.746 1.03418 394.836 3.63576 390.001 8.60625L383.326 15.438Z" fill="#FFCF2D"/>
<path d="M431.997 49.322C431.825 49.322 431.676 49.2585 431.547 49.1528L389.06 8.62734C388.803 8.37352 388.803 7.9928 389.039 7.73899C389.295 7.48518 389.702 7.48517 389.937 7.71784L432.424 48.2433C432.681 48.4971 432.681 48.8778 432.446 49.1316C432.339 49.2585 432.168 49.322 431.997 49.322Z" fill="#FFCF2D"/>
<path d="M514.061 282.936C513.976 282.936 513.89 282.915 513.805 282.872C513.484 282.724 513.334 282.344 513.484 282.026L573.064 150.636L456.577 10.4468V10.4257C454.374 7.46451 451.144 5.56092 447.464 5.03214C443.784 4.50336 440.126 5.45516 437.174 7.69717L432.424 11.2929C432.146 11.5044 431.74 11.4621 431.526 11.1659C431.312 10.891 431.355 10.4891 431.654 10.2776L436.404 6.68192C439.634 4.24955 443.634 3.21315 447.656 3.78423C451.678 4.35531 455.208 6.42811 457.604 9.66422L574.562 150.446L574.391 150.805L514.639 282.555C514.532 282.788 514.297 282.936 514.061 282.936Z" fill="#3FB1B5"/>
<path d="M571.909 157.722C575.524 157.722 578.455 154.824 578.455 151.25C578.455 147.675 575.524 144.777 571.909 144.777C568.293 144.777 565.362 147.675 565.362 151.25C565.362 154.824 568.293 157.722 571.909 157.722Z" fill="white"/>
<path d="M571.909 158.356C567.951 158.356 564.721 155.162 564.721 151.249C564.721 147.336 567.951 144.143 571.909 144.143C575.867 144.143 579.097 147.336 579.097 151.249C579.097 155.162 575.867 158.356 571.909 158.356ZM571.909 145.412C568.657 145.412 566.004 148.034 566.004 151.249C566.004 154.464 568.657 157.087 571.909 157.087C575.161 157.087 577.814 154.464 577.814 151.249C577.814 148.034 575.161 145.412 571.909 145.412Z" fill="#FFCF2D"/>
<path d="M497.46 267.58H529.357C538.535 267.58 545.958 274.941 545.958 283.993V284.459H480.837V283.993C480.858 274.941 488.282 267.58 497.46 267.58Z" fill="white"/>
<path d="M546.6 285.093H480.195V283.993C480.217 274.602 487.961 266.945 497.46 266.945H529.357C538.856 266.945 546.6 274.602 546.6 283.993V285.093ZM481.479 283.824H545.317C545.231 275.194 538.107 268.214 529.357 268.214H497.46C488.731 268.214 481.586 275.194 481.479 283.824Z" fill="#FFCF2D"/>
<path d="M342.936 236.424H141.004C133.409 236.424 127.269 230.354 127.269 222.845V83.2059C127.269 75.6973 133.409 69.627 141.004 69.627H342.936C350.53 69.627 356.67 75.6973 356.67 83.2059V222.824C356.692 230.333 350.53 236.424 342.936 236.424Z" fill="white"/>
<path d="M342.936 237.058H141.004C133.067 237.058 126.627 230.692 126.627 222.845V83.2057C126.627 75.3587 133.067 68.9922 141.004 68.9922H342.936C350.873 68.9922 357.312 75.3587 357.312 83.2057V222.824C357.334 226.61 355.836 230.184 353.119 232.871C350.402 235.578 346.787 237.058 342.936 237.058ZM141.004 70.2613C133.794 70.2613 127.911 76.0778 127.911 83.2057V222.845C127.911 229.973 133.794 235.789 141.004 235.789H342.936C346.444 235.789 349.739 234.436 352.221 231.982C354.681 229.529 356.05 226.271 356.029 222.824V83.2057C356.029 76.0778 350.145 70.2613 342.936 70.2613H141.004Z" fill="#3FB1B5"/>
<path d="M343.065 223.437H143.079C140.106 223.437 137.709 221.047 137.709 218.128V84.5384C137.709 81.5984 140.127 79.2295 143.079 79.2295H343.065C346.038 79.2295 348.434 81.6196 348.434 84.5384V218.107C348.456 221.047 346.038 223.437 343.065 223.437Z" fill="#66B0F0"/>
<path d="M343.065 224.072H143.079C139.763 224.072 137.068 221.407 137.068 218.128V84.5382C137.068 81.2598 139.763 78.5947 143.079 78.5947H343.065C346.381 78.5947 349.076 81.2598 349.076 84.5382V218.107C349.098 219.693 348.477 221.195 347.343 222.316C346.188 223.437 344.691 224.072 343.065 224.072ZM143.079 79.8638C140.469 79.8638 138.351 81.9577 138.351 84.5382V218.128C138.351 220.709 140.469 222.803 143.079 222.803H343.065C344.327 222.803 345.525 222.316 346.423 221.428C347.322 220.539 347.793 219.376 347.793 218.128V84.5382C347.793 81.9577 345.675 79.8638 343.065 79.8638H143.079Z" fill="#66B0F0"/>
<path d="M150.246 92.3427H147.08C145.689 92.3427 144.555 91.2217 144.555 89.8469V86.7165C144.555 85.3417 145.689 84.2207 147.08 84.2207H150.246C151.636 84.2207 152.77 85.3417 152.77 86.7165V89.8469C152.749 91.2429 151.636 92.3427 150.246 92.3427ZM147.08 85.4898C146.395 85.4898 145.839 86.0397 145.839 86.7165V89.8469C145.839 90.5237 146.395 91.0737 147.08 91.0737H150.246C150.93 91.0737 151.465 90.5237 151.487 89.8257V86.7165C151.487 86.0397 150.93 85.4898 150.246 85.4898H147.08Z" fill="white"/>
<path d="M164.644 92.3427H161.478C160.087 92.3427 158.953 91.2217 158.953 89.8469V86.7165C158.953 85.3417 160.087 84.2207 161.478 84.2207H164.644C166.034 84.2207 167.168 85.3417 167.168 86.7165V89.8469C167.168 91.2217 166.034 92.3427 164.644 92.3427ZM161.478 85.4898C160.793 85.4898 160.237 86.0397 160.237 86.7165V89.8469C160.237 90.5237 160.793 91.0737 161.478 91.0737H164.644C165.328 91.0737 165.885 90.5237 165.885 89.8469V86.7165C165.885 86.0397 165.328 85.4898 164.644 85.4898H161.478Z" fill="white"/>
<path d="M179.041 92.3427H175.875C174.484 92.3427 173.351 91.2217 173.351 89.8469V86.7165C173.351 85.3417 174.484 84.2207 175.875 84.2207H179.041C180.432 84.2207 181.566 85.3417 181.566 86.7165V89.8469C181.566 91.2217 180.432 92.3427 179.041 92.3427ZM175.875 85.4898C175.19 85.4898 174.634 86.0397 174.634 86.7165V89.8469C174.634 90.5237 175.19 91.0737 175.875 91.0737H179.041C179.747 91.0737 180.282 90.5449 180.282 89.8469V86.7165C180.282 86.0397 179.726 85.4898 179.041 85.4898H175.875Z" fill="white"/>
<path d="M284.596 284.036H206.211L221.593 236.425H269.193L284.596 284.036Z" fill="white"/>
<path d="M285.473 284.67H205.333L221.122 235.79H269.663L285.473 284.67ZM207.088 283.401H283.719L268.722 237.059H222.063L207.088 283.401Z" fill="#3FB1B5"/>
<path d="M212.372 264.979L221.592 236.425H269.192L212.372 264.979Z" fill="#3FB1B5"/>
<path d="M331.426 123.668H293.325C289.41 123.668 286.222 120.516 286.222 116.646V92.322C286.222 88.4513 289.41 85.2998 293.325 85.2998H331.426C335.341 85.2998 338.529 88.4513 338.529 92.322V116.646C338.529 120.516 335.341 123.668 331.426 123.668ZM293.325 86.5689C290.116 86.5689 287.506 89.1493 287.506 92.322V116.646C287.506 119.818 290.116 122.399 293.325 122.399H331.426C334.635 122.399 337.245 119.818 337.245 116.646V92.322C337.245 89.1493 334.635 86.5689 331.426 86.5689H293.325Z" fill="white"/>
<path d="M326.827 95.2407H297.753C297.389 95.2407 297.111 94.9658 297.111 94.6062C297.111 94.2466 297.389 93.9717 297.753 93.9717H326.827C327.19 93.9717 327.468 94.2466 327.468 94.6062C327.468 94.9658 327.19 95.2407 326.827 95.2407Z" fill="white"/>
<path d="M326.827 101.797H297.753C297.389 101.797 297.111 101.522 297.111 101.163C297.111 100.803 297.389 100.528 297.753 100.528H326.827C327.19 100.528 327.468 100.803 327.468 101.163C327.468 101.522 327.19 101.797 326.827 101.797Z" fill="white"/>
<path d="M326.827 108.355H297.753C297.389 108.355 297.111 108.08 297.111 107.72C297.111 107.361 297.389 107.086 297.753 107.086H326.827C327.19 107.086 327.468 107.361 327.468 107.72C327.468 108.08 327.19 108.355 326.827 108.355Z" fill="white"/>
<path d="M326.827 114.911H297.753C297.389 114.911 297.111 114.636 297.111 114.276C297.111 113.917 297.389 113.642 297.753 113.642H326.827C327.19 113.642 327.468 113.917 327.468 114.276C327.468 114.636 327.19 114.911 326.827 114.911Z" fill="white"/>
<path d="M341.952 223.437H190.508L181.63 236.022C171.596 250.235 150.396 250.447 140.084 236.424L86.0015 162.882C88.2692 165.674 98.645 162.564 108.529 156.134C118.562 149.599 125.044 141.371 123.012 138.325L160.515 185.577L172.003 165.525C175.148 160.217 180.368 156.409 186.443 155.013L225.529 146.828H259.224L296.363 154.929C302.823 156.388 308.3 160.555 311.402 166.329L341.952 223.437Z" fill="white"/>
<path d="M160.707 247.444C152.256 247.444 144.555 243.573 139.57 236.784L85.4878 163.242L86.5147 162.48C88.3331 164.701 97.9815 162.248 108.186 155.606C112.935 152.518 117.064 148.944 119.803 145.517C122.284 142.429 123.29 139.87 122.477 138.664L123.525 137.924L160.429 184.435L171.446 165.209C174.677 159.752 180.089 155.818 186.293 154.401L225.465 146.194H259.287L259.352 146.215L296.491 154.316C303.123 155.818 308.77 160.09 311.958 166.034L343 224.072H190.829L182.143 236.382C177.244 243.32 169.521 247.359 160.942 247.444C160.878 247.444 160.792 247.444 160.707 247.444ZM87.9694 164.468L140.618 236.044C145.411 242.558 152.813 246.26 160.964 246.175C169.114 246.09 176.452 242.262 181.116 235.663L190.187 222.803H340.903L310.846 166.626C307.829 161 302.502 156.96 296.234 155.543L259.159 147.463H225.593L186.571 155.627C180.71 156.981 175.597 160.704 172.559 165.843L160.6 186.719L123.932 140.525C123.632 142.112 122.584 144.1 120.787 146.321C117.963 149.832 113.727 153.512 108.871 156.664C102.089 161.063 93.9382 164.532 89.0819 164.532C88.6968 164.532 88.3117 164.511 87.9694 164.468Z" fill="#3FB1B5"/>
<path d="M300.385 223.205C300.149 223.205 299.935 223.079 299.807 222.867L289.046 201.864C288.896 201.547 289.003 201.166 289.324 201.018C289.645 200.87 290.03 200.976 290.18 201.293L300.941 222.296C301.091 222.613 300.984 222.994 300.663 223.142C300.577 223.184 300.492 223.205 300.385 223.205Z" fill="#3FB1B5"/>
<path d="M189.652 225.172C189.545 225.172 189.46 225.151 189.353 225.109C189.032 224.961 188.903 224.559 189.075 224.263L199.729 203.471C199.878 203.154 200.285 203.027 200.584 203.196C200.905 203.344 201.034 203.746 200.862 204.042L190.208 224.834C190.101 225.045 189.888 225.172 189.652 225.172Z" fill="#3FB1B5"/>
<path d="M170.334 198.733C170.141 198.733 169.949 198.648 169.82 198.479L145.411 167.62C145.197 167.345 145.24 166.943 145.518 166.731C145.796 166.52 146.202 166.562 146.416 166.837L170.826 197.697C171.04 197.971 170.997 198.373 170.719 198.585C170.612 198.691 170.462 198.733 170.334 198.733Z" fill="#3FB1B5"/>
<path d="M255.479 168.699L246.088 157.383C245.852 157.108 245.895 156.706 246.173 156.495C246.451 156.262 246.858 156.304 247.072 156.579L255.651 166.88L275.268 150.424C275.546 150.192 275.953 150.234 276.167 150.488C276.402 150.763 276.359 151.165 276.103 151.376L255.479 168.699Z" fill="#3FB1B5"/>
<path d="M231.091 169.101L208.478 151.397C208.2 151.186 208.157 150.784 208.371 150.509C208.585 150.234 208.992 150.192 209.27 150.403L230.856 167.303L239.178 156.791C239.391 156.516 239.798 156.474 240.076 156.685C240.354 156.897 240.397 157.299 240.183 157.574L231.091 169.101Z" fill="#3FB1B5"/>
<path d="M96.2917 174.304C94.2593 174.304 93.1897 173.691 92.6548 173.014C92.4409 172.739 92.4837 172.337 92.7618 172.125C93.0399 171.914 93.4464 171.956 93.6603 172.231C94.5588 173.352 97.4897 173.289 101.49 172.104C105.748 170.835 110.882 168.339 115.546 165.272C120.316 162.142 124.467 158.525 127.227 155.056C129.73 151.926 130.735 149.346 129.922 148.119C129.73 147.823 129.815 147.442 130.115 147.231C130.414 147.04 130.799 147.125 131.013 147.421C132.168 149.176 131.184 152.159 128.253 155.839C125.408 159.392 121.151 163.115 116.273 166.309C111.438 169.481 106.325 171.977 101.875 173.31C99.4579 174.029 97.6395 174.304 96.2917 174.304Z" fill="#3FB1B5"/>
<path d="M123.739 153.766C122.049 153.766 120.68 152.412 120.68 150.741C120.68 149.07 122.049 147.717 123.739 147.717C125.429 147.717 126.799 149.07 126.799 150.741C126.799 152.412 125.429 153.766 123.739 153.766ZM123.739 148.986C122.755 148.986 121.964 149.768 121.964 150.741C121.964 151.714 122.755 152.497 123.739 152.497C124.724 152.497 125.515 151.714 125.515 150.741C125.515 149.768 124.724 148.986 123.739 148.986Z" fill="#3FB1B5"/>
<path d="M243.114 168.784C241.424 168.784 240.055 167.43 240.055 165.759C240.055 164.088 241.424 162.734 243.114 162.734C244.804 162.734 246.173 164.088 246.173 165.759C246.173 167.43 244.804 168.784 243.114 168.784ZM243.114 164.003C242.13 164.003 241.338 164.786 241.338 165.759C241.338 166.732 242.13 167.515 243.114 167.515C244.098 167.515 244.89 166.732 244.89 165.759C244.89 164.786 244.098 164.003 243.114 164.003Z" fill="#3FB1B5"/>
<path d="M243.114 188.031C241.424 188.031 240.055 186.677 240.055 185.006C240.055 183.335 241.424 181.981 243.114 181.981C244.804 181.981 246.173 183.335 246.173 185.006C246.173 186.677 244.804 188.031 243.114 188.031ZM243.114 183.251C242.13 183.251 241.338 184.033 241.338 185.006C241.338 185.979 242.13 186.762 243.114 186.762C244.098 186.762 244.89 185.979 244.89 185.006C244.89 184.033 244.098 183.251 243.114 183.251Z" fill="#3FB1B5"/>
<path d="M180.859 237.038L190.508 223.438V237.038H180.859Z" fill="#3FB1B5"/>
<path d="M108.293 155.5C98.4089 161.93 88.0331 165.039 85.7654 162.247C85.7226 162.205 85.7012 162.163 85.6584 162.099C85.1878 161.401 85.2306 160.449 85.6584 159.286C87.1346 155.458 93.2317 149.535 100.976 144.501C107.137 140.483 113.213 137.691 117.428 136.824C119.866 136.337 121.685 136.485 122.562 137.416L122.776 137.67C124.787 140.715 118.326 148.964 108.293 155.5Z" fill="#FE5244"/>
<path d="M108.293 155.5C102.666 159.159 96.8688 161.761 92.5046 162.776L72.9724 135.534C70.2555 131.726 71.154 126.46 75.0262 123.774L92.6115 111.548L82.6422 94.7755C81.1875 92.3431 82.0218 89.1916 84.5035 87.7745C85.3164 87.3092 86.1935 87.0977 87.0707 87.0977C88.7607 87.0977 90.4294 87.9226 91.4135 89.4454L122.584 137.374L122.798 137.712C124.787 140.716 118.326 148.964 108.293 155.5Z" fill="#E57281"/>
<path d="M98.131 135.851C97.8529 135.851 97.5748 135.83 97.2967 135.766C96.227 135.555 95.3071 134.92 94.7295 134.032L84.4393 118.803C84.2468 118.507 84.3323 118.126 84.6104 117.915C84.9099 117.724 85.295 117.809 85.509 118.084L95.7992 133.313C96.2056 133.926 96.826 134.349 97.5534 134.497C98.2808 134.645 99.0296 134.497 99.65 134.095L102.067 132.53C103.351 131.705 103.715 130.013 102.902 128.744L92.0125 112.056C91.82 111.76 91.9056 111.379 92.2051 111.189C92.5046 110.998 92.8897 111.083 93.0822 111.379L103.971 128.067C105.169 129.928 104.613 132.403 102.752 133.588L100.335 135.153C99.6927 135.618 98.9226 135.851 98.131 135.851Z" fill="#9A3B82"/>
<path d="M90.1512 140.905C88.8248 140.905 87.5198 140.271 86.7283 139.108C86.5358 138.811 86.6213 138.431 86.9208 138.219C87.2203 138.029 87.6054 138.113 87.8194 138.41C88.6537 139.657 90.3652 140.017 91.6488 139.213L93.8523 137.839C94.4727 137.437 94.9219 136.823 95.0717 136.083C95.2215 135.343 95.0931 134.602 94.6866 133.989C94.4941 133.693 94.5796 133.312 94.8792 133.101C95.1787 132.91 95.5638 132.995 95.7777 133.291C96.3767 134.201 96.5906 135.279 96.3553 136.358C96.12 137.415 95.4782 138.325 94.5583 138.917L92.3548 140.292C91.6702 140.694 90.9 140.905 90.1512 140.905Z" fill="#9A3B82"/>
<path d="M82.3217 145.644C81.0381 145.644 79.7759 145.052 78.9843 143.931L73.1439 135.788C72.93 135.491 73.0156 135.111 73.2937 134.899C73.5718 134.688 73.9783 134.772 74.1922 135.047L80.0326 143.19C80.9097 144.396 82.557 144.713 83.7978 143.931L83.8406 143.909L85.873 142.788C86.5148 142.387 86.9427 141.773 87.1138 141.054C87.285 140.314 87.1352 139.574 86.7287 138.939L76.6525 124.133C76.4599 123.837 76.5241 123.456 76.8236 123.245C77.1231 123.055 77.5082 123.118 77.7221 123.414L87.7984 138.22C88.4188 139.151 88.6114 140.25 88.376 141.308C88.1407 142.365 87.4989 143.275 86.5576 143.846L86.5362 143.867L84.5038 144.988C83.7978 145.454 83.0491 145.644 82.3217 145.644Z" fill="#9A3B82"/>
<path d="M115.31 126.206L110.197 118.359C108.507 115.757 104.977 115.038 102.388 116.773L89.7021 125.275C89.7021 125.275 93.3818 131.811 102.324 126.629L105.319 131.346C99.2008 135.174 97.4466 143.233 101.426 149.218L115.31 126.206Z" fill="#E57281"/>
<path d="M101.426 149.853C101.212 149.853 101.019 149.747 100.891 149.557C98.8797 146.511 98.1737 142.873 98.9653 139.32C99.6926 135.978 101.639 133.101 104.442 131.155L102.11 127.475C99.0294 129.146 96.2269 129.632 93.7453 128.977C90.6005 128.131 89.1885 125.677 89.1243 125.593L88.8462 125.085L101.34 116.455C102.752 115.525 104.421 115.186 106.068 115.525C107.715 115.863 109.127 116.815 110.047 118.232L115.16 126.079C115.353 126.375 115.267 126.756 114.968 126.946C114.668 127.137 114.283 127.052 114.09 126.756L108.977 118.909C108.25 117.788 107.138 117.026 105.811 116.773C104.506 116.498 103.158 116.773 102.067 117.513L90.5791 125.445C91.0925 126.1 92.2477 127.285 94.0876 127.771C96.3553 128.385 99.0081 127.813 101.982 126.1L102.517 125.783L106.175 131.557L105.64 131.896C102.837 133.651 100.891 136.401 100.185 139.616C99.4787 142.831 100.099 146.13 101.939 148.88C102.131 149.176 102.046 149.557 101.746 149.768C101.661 149.811 101.554 149.853 101.426 149.853Z" fill="#9A3B82"/>
<path d="M108.293 155.5C102.667 159.159 96.869 161.761 92.5047 162.776L87.6484 156.008C90.3654 152.497 95.2217 148.267 100.976 144.523C107.138 140.504 113.214 137.712 117.428 136.845C119.867 136.359 121.685 136.507 122.562 137.437L122.776 137.691C122.798 137.733 122.819 137.755 122.841 137.797C122.862 137.818 122.862 137.839 122.883 137.882C122.905 137.924 122.926 137.945 122.947 137.987C124.402 141.223 118.006 149.155 108.293 155.5Z" fill="#9A3B82"/>
<path d="M259.202 128.216V146.808C259.202 152.201 251.628 156.558 242.322 156.558C232.995 156.558 225.443 152.201 225.443 146.808V128.216H259.202Z" fill="#E57281"/>
<path d="M230.384 153.703C227.325 151.947 225.421 149.494 225.421 146.808V128.216H259.201V133.377C259.201 138.728 255.906 143.529 250.9 145.539L230.384 153.703Z" fill="#9A3B82"/>
<path d="M268.614 127.116V127.433C268.614 130.648 265.983 133.249 262.731 133.249H258.859C257.554 138.453 252.805 142.323 247.114 142.323H237.53C231.86 142.323 227.09 138.474 225.806 133.249H221.934C218.682 133.249 216.051 130.648 216.051 127.433V127.116C216.051 123.901 218.682 121.299 221.934 121.299H225.442V116.709C225.442 111.802 229.101 107.741 233.871 107.064C234.92 108.799 238.086 112.944 244.547 112.712C247.585 112.606 250.409 112.035 252.74 111.358C255.543 110.554 258.346 112.246 259.051 114.89C259.158 115.483 259.223 116.075 259.223 116.688V121.278H262.731C265.962 121.278 268.614 123.901 268.614 127.116Z" fill="#E57281"/>
<path d="M261.897 121.278H259.201V116.181C259.201 115.737 259.137 115.292 259.03 114.891C258.324 112.247 255.521 110.555 252.719 111.358C250.387 112.035 247.584 112.606 244.525 112.712C238.064 112.945 234.898 108.799 233.85 107.065C229.079 107.742 225.421 111.803 225.421 116.71V121.299H222.062C222.062 121.299 218.211 107.53 221.099 103.638C223.945 99.8099 227.368 101.481 227.368 101.481C227.368 101.481 225.314 90.017 236.781 90.2285C248.226 90.44 263.116 103.575 264.207 105.986C265.919 109.687 261.897 121.278 261.897 121.278Z" fill="#9A3B82"/>
<path d="M260.507 128.723C260.207 128.723 259.972 128.49 259.972 128.194C259.972 125.656 262.068 123.583 264.635 123.583C264.935 123.583 265.17 123.816 265.17 124.112C265.17 124.408 264.935 124.641 264.635 124.641C262.646 124.641 261.041 126.227 261.041 128.194C261.041 128.49 260.806 128.723 260.507 128.723Z" fill="#9A3B82"/>
<path d="M224.18 128.723C223.881 128.723 223.646 128.49 223.646 128.194C223.646 126.227 222.041 124.641 220.051 124.641C219.752 124.641 219.517 124.408 219.517 124.112C219.517 123.816 219.752 123.583 220.051 123.583C222.619 123.583 224.715 125.656 224.715 128.194C224.715 128.49 224.48 128.723 224.18 128.723Z" fill="#9A3B82"/>
<path d="M253.81 117.238C253.703 117.238 253.596 117.196 253.489 117.132C253.382 117.048 250.623 115.123 247.093 116.583C246.815 116.688 246.515 116.561 246.387 116.286C246.28 116.011 246.408 115.715 246.686 115.588C250.794 113.918 253.981 116.16 254.11 116.265C254.345 116.434 254.409 116.773 254.217 117.006C254.131 117.154 253.981 117.238 253.81 117.238Z" fill="#9A3B82"/>
<path d="M230.62 117.239C230.449 117.239 230.299 117.154 230.192 117.027C230.021 116.794 230.064 116.456 230.299 116.287C230.427 116.181 233.636 113.939 237.723 115.61C238.001 115.716 238.129 116.033 238.022 116.308C237.915 116.583 237.594 116.71 237.316 116.604C233.765 115.145 230.962 117.133 230.919 117.154C230.834 117.196 230.727 117.239 230.62 117.239Z" fill="#9A3B82"/>
<path d="M243.67 135.047C242.836 135.047 241.873 134.878 240.782 134.476C240.504 134.37 240.354 134.074 240.461 133.799C240.568 133.524 240.867 133.376 241.146 133.482C245.638 135.132 247.114 132.213 247.179 132.086C247.307 131.832 247.628 131.705 247.884 131.832C248.141 131.959 248.27 132.276 248.141 132.53C248.12 132.572 246.9 135.047 243.67 135.047Z" fill="#9A3B82"/>
<path d="M242.151 131.071C241.659 131.071 241.124 131.071 240.675 131.029C240.375 131.008 240.161 130.754 240.183 130.458C240.204 130.162 240.461 129.95 240.76 129.971C242.023 130.056 243.969 129.971 243.991 129.971C244.29 129.95 244.526 130.183 244.547 130.479C244.568 130.775 244.333 131.008 244.033 131.029C243.991 131.029 243.114 131.071 242.151 131.071Z" fill="#9A3B82"/>
<path d="M250.366 125.529C250.957 125.529 251.436 124.734 251.436 123.752C251.436 122.771 250.957 121.976 250.366 121.976C249.775 121.976 249.296 122.771 249.296 123.752C249.296 124.734 249.775 125.529 250.366 125.529Z" fill="#9A3B82"/>
<path d="M235.027 125.529C235.617 125.529 236.096 124.734 236.096 123.752C236.096 122.771 235.617 121.976 235.027 121.976C234.436 121.976 233.957 122.771 233.957 123.752C233.957 124.734 234.436 125.529 235.027 125.529Z" fill="#9A3B82"/>
<path d="M237.572 130.268H230.833C229.25 130.268 227.945 128.978 227.945 127.412V120.75C227.945 119.185 229.25 117.895 230.833 117.895H237.572C239.155 117.895 240.46 119.185 240.46 120.75V127.412C240.482 128.153 240.182 128.872 239.647 129.401C239.091 129.972 238.364 130.268 237.572 130.268ZM230.833 118.952C229.828 118.952 229.015 119.756 229.015 120.75V127.412C229.015 128.407 229.828 129.21 230.833 129.21H237.572C238.064 129.21 238.535 129.02 238.877 128.66C239.22 128.322 239.391 127.878 239.391 127.412V120.75C239.391 119.756 238.578 118.952 237.572 118.952H230.833Z" fill="white"/>
<path d="M254.066 130.268H247.328C245.744 130.268 244.439 128.978 244.439 127.412V120.75C244.439 119.185 245.744 117.895 247.328 117.895H254.066C255.65 117.895 256.955 119.185 256.955 120.75V127.412C256.955 128.978 255.65 130.268 254.066 130.268ZM247.328 118.952C246.322 118.952 245.509 119.756 245.509 120.75V127.412C245.509 128.407 246.322 129.21 247.328 129.21H254.066C255.072 129.21 255.885 128.407 255.885 127.412V120.75C255.885 119.756 255.072 118.952 254.066 118.952H247.328Z" fill="white"/>
<path d="M244.974 122.294H239.947V123.352H244.974V122.294Z" fill="white"/>
<path d="M255.843 215.866H232.46C229.979 215.866 227.968 213.877 227.968 211.424V199.135C227.968 196.682 229.979 194.693 232.46 194.693H255.843C258.325 194.693 260.336 196.682 260.336 199.135V211.424C260.336 213.877 258.325 215.866 255.843 215.866ZM232.46 195.962C230.685 195.962 229.251 197.38 229.251 199.135V211.424C229.251 213.179 230.685 214.596 232.46 214.596H255.843C257.619 214.596 259.052 213.179 259.052 211.424V199.135C259.052 197.38 257.619 195.962 255.843 195.962H232.46Z" fill="#66B0F0"/>
<path d="M244.74 210.282H236.824C235.562 210.282 234.535 209.267 234.535 208.019V202.541C234.535 201.293 235.562 200.277 236.824 200.277H244.74C246.002 200.277 247.029 201.293 247.029 202.541V208.019C247.029 209.267 246.002 210.282 244.74 210.282Z" fill="#66B0F0"/>
<path d="M252.442 210.134L250.003 208.526C249.34 208.082 248.933 207.321 248.933 206.496V204.085C248.933 203.26 249.34 202.498 250.003 202.054L252.442 200.447C253.019 200.066 253.768 200.489 253.768 201.208V209.394C253.789 210.091 253.019 210.515 252.442 210.134Z" fill="#66B0F0"/>
<path d="M568.572 285.093H0.641801C0.278114 285.093 0 284.818 0 284.459C0 284.099 0.278114 283.824 0.641801 283.824H568.572C568.935 283.824 569.214 284.099 569.214 284.459C569.214 284.818 568.935 285.093 568.572 285.093Z" fill="#3FB1B5"/>
<path d="M183.491 288.16V549.291H168.58V499.586C168.58 494.954 164.772 491.189 160.087 491.189H53.355C48.6699 491.189 44.8619 494.954 44.8619 499.586V549.291H29.9507V288.16H183.491Z" fill="white"/>
<path d="M184.133 549.925H167.938V499.586C167.938 495.313 164.408 491.824 160.087 491.824H53.3552C49.0338 491.824 45.5039 495.313 45.5039 499.586V549.925H29.3091V287.525H184.133V549.925ZM169.222 548.656H182.849V288.794H30.5927V548.656H44.2203V499.586C44.2203 494.615 48.3278 490.554 53.3552 490.554H160.087C165.114 490.554 169.222 494.615 169.222 499.586V548.656Z" fill="#3FB1B5"/>
<path d="M183.94 288.16V357.451L29.9507 482.813L29.9721 288.16H183.94Z" fill="#D0F0E4"/>
<path d="M160.536 363.986H52.9274C48.1353 363.986 44.2417 360.137 44.2417 355.399V308.041C44.2417 303.304 48.1353 299.454 52.9274 299.454H160.536C165.328 299.454 169.222 303.304 169.222 308.041V355.399C169.222 360.137 165.328 363.986 160.536 363.986ZM52.9274 300.723C48.8413 300.723 45.5253 304.002 45.5253 308.041V355.399C45.5253 359.439 48.8413 362.717 52.9274 362.717H160.536C164.622 362.717 167.938 359.439 167.938 355.399V308.041C167.938 304.002 164.622 300.723 160.536 300.723H52.9274Z" fill="#3FB1B5"/>
<path d="M134.093 399.224H81.1234L78.9199 384.228H131.911L134.093 399.224Z" fill="#FFCF2D"/>
<path d="M162.354 375.578C155.744 375.578 150.395 380.866 150.395 387.402V399.225H105.319V387.402C105.319 380.866 110.668 375.578 117.278 375.578H162.354Z" fill="white"/>
<path d="M151.037 399.859H104.678V387.401C104.678 380.527 110.326 374.943 117.278 374.943H162.354V376.212C156.107 376.212 151.037 381.225 151.037 387.401V399.859ZM105.961 398.59H149.754V387.401C149.754 382.494 152.642 378.243 156.813 376.212H117.278C111.032 376.212 105.961 381.225 105.961 387.401V398.59Z" fill="#3FB1B5"/>
<path d="M173.586 384.229H128.51C127.119 379.237 122.477 375.578 116.979 375.578H162.055C167.553 375.578 172.174 379.237 173.586 384.229Z" fill="white"/>
<path d="M174.442 384.863H128.04L127.912 384.398C126.564 379.575 122.071 376.212 117.001 376.212V374.943H162.077C167.703 374.943 172.709 378.687 174.228 384.06L174.442 384.863ZM128.981 383.594H172.709C171.105 379.216 166.826 376.212 162.055 376.212H122.52C125.537 377.672 127.933 380.316 128.981 383.594Z" fill="#3FB1B5"/>
<path d="M160.536 463.122H52.9274C48.1353 463.122 44.2417 459.272 44.2417 454.534V407.177C44.2417 402.439 48.1353 398.59 52.9274 398.59H160.536C165.328 398.59 169.222 402.439 169.222 407.177V454.534C169.222 459.272 165.328 463.122 160.536 463.122ZM52.9274 399.859C48.8413 399.859 45.5253 403.137 45.5253 407.177V454.534C45.5253 458.574 48.8413 461.853 52.9274 461.853H160.536C164.622 461.853 167.938 458.574 167.938 454.534V407.177C167.938 403.137 164.622 399.859 160.536 399.859H52.9274Z" fill="#3FB1B5"/>
<path d="M128.788 331.413C128.424 331.413 128.146 331.138 128.146 330.779C128.146 327.352 125.343 324.582 121.878 324.582H91.6061C88.1403 324.582 85.3378 327.352 85.3378 330.779C85.3378 331.138 85.0597 331.413 84.696 331.413C84.3323 331.413 84.0542 331.138 84.0542 330.779C84.0542 326.654 87.4344 323.312 91.6061 323.312H121.878C126.049 323.312 129.43 326.654 129.43 330.779C129.43 331.138 129.151 331.413 128.788 331.413Z" fill="#3FB1B5"/>
<path d="M128.788 430.548C128.424 430.548 128.146 430.273 128.146 429.914C128.146 426.487 125.343 423.716 121.878 423.716H91.6061C88.1403 423.716 85.3378 426.487 85.3378 429.914C85.3378 430.273 85.0597 430.548 84.696 430.548C84.3323 430.548 84.0542 430.273 84.0542 429.914C84.0542 425.789 87.4344 422.447 91.6061 422.447H121.878C126.049 422.447 129.43 425.789 129.43 429.914C129.43 430.273 129.151 430.548 128.788 430.548Z" fill="#3FB1B5"/>
<path d="M545.959 288.16H530.063V549.862H545.959V288.16Z" fill="white"/>
<path d="M546.601 550.496H529.422V287.525H546.601V550.496ZM530.705 549.227H545.317V288.794H530.705V549.227Z" fill="#3FB1B5"/>
<path d="M607.551 550.497H275.825C275.461 550.497 275.183 550.222 275.183 549.862C275.183 549.502 275.461 549.228 275.825 549.228H607.551C607.914 549.228 608.192 549.502 608.192 549.862C608.192 550.222 607.914 550.497 607.551 550.497Z" fill="#3FB1B5"/>
<path d="M75.0911 248.565H65.4855C65.4855 248.565 51.7724 192.07 39.7279 190.23C27.6834 188.39 27.063 210.133 27.063 210.133C27.063 210.133 27.2769 177.074 57.3774 181.601C87.4993 186.127 75.0911 248.565 75.0911 248.565Z" fill="white"/>
<path d="M75.6262 249.2H64.9937L64.8654 248.713C64.8226 248.565 61.3783 234.436 56.522 220.286C48.478 196.872 42.8944 191.352 39.6426 190.865C37.4177 190.527 35.4495 191.034 33.8236 192.388C28.1543 197.041 27.7265 210.028 27.7265 210.155L26.4429 210.134C26.4429 209.964 26.4857 206.094 27.7479 201.144C28.9245 196.555 31.4061 190.146 36.6047 185.747C41.8889 181.284 48.9059 179.676 57.506 180.988C63.0683 181.812 67.5823 184.647 70.9411 189.363C76.3322 196.957 78.7925 209.245 78.2148 225.934C77.787 238.307 75.776 248.586 75.7546 248.692L75.6262 249.2ZM65.9992 247.931H74.578C74.9844 245.71 76.5676 236.572 76.9312 225.87C77.3163 214.597 76.3964 199.262 69.8928 190.104C66.748 185.662 62.5121 183.018 57.3135 182.257C49.1198 181.03 42.4237 182.532 37.439 186.741C35.9415 188.01 34.6579 189.469 33.5882 191.013C35.4067 189.744 37.5032 189.3 39.8565 189.659C45.0979 190.463 51.1308 200.658 57.7628 219.948C62.1056 232.617 65.336 245.308 65.9992 247.931Z" fill="#3FB1B5"/>
<path d="M70.8765 248.354C70.5343 248.354 70.2347 248.079 70.2347 247.719C69.5288 205.608 60.5007 190.738 53.0559 185.704C47.408 181.876 42.4661 183.61 42.4234 183.632C42.0811 183.758 41.7174 183.589 41.589 183.251C41.4606 182.912 41.6318 182.553 41.9741 182.426C42.2094 182.341 47.5791 180.459 53.7832 184.647C58.5753 187.904 62.4903 193.869 65.3998 202.414C69.1437 213.412 71.1974 228.641 71.5183 247.698C71.5183 248.058 71.2402 248.354 70.8765 248.354Z" fill="#3FB1B5"/>
<path d="M101.255 247.719H56.1362V284.035H101.255V247.719Z" fill="#FE5244"/>
<path d="M110.754 265.888C107.887 267.115 104.464 266.967 101.277 265.592C98.9235 264.577 96.6986 262.906 94.9016 260.621C92.42 257.449 90.7513 253.113 90.7513 247.719C90.7513 234.648 80.2257 226.441 75.9043 243.743C75.6048 244.948 75.3266 246.26 75.0913 247.719V247.677V247.592C75.0913 247.55 75.0913 247.487 75.1127 247.423V247.338C75.1983 246.26 75.5192 243.066 76.5033 239.216C77.2307 236.361 78.3217 233.188 79.9476 230.248C80.7606 228.789 81.7019 227.393 82.8143 226.145C85.681 222.888 89.6174 220.604 94.9871 220.604C104.871 220.604 112.102 232.11 114.862 243.574C117.279 253.536 116.295 263.498 110.754 265.888Z" fill="white"/>
<path d="M106.54 267.347C104.721 267.347 102.817 266.945 101.02 266.163C98.4744 265.063 96.1853 263.286 94.3882 261.002C91.5857 257.427 90.1096 252.816 90.1096 247.719C90.1096 241.754 87.4568 235.028 83.499 234.563C80.6323 234.225 78.1079 237.63 76.5248 243.891C76.2039 245.202 75.9472 246.471 75.7118 247.825L74.4282 247.719V247.592C74.4282 247.55 74.4282 247.444 74.4496 247.338V247.275C74.5352 246.09 74.8775 242.918 75.8616 239.047C76.7387 235.621 77.9153 232.554 79.3701 229.931C80.29 228.302 81.2527 226.906 82.3224 225.722C85.6811 221.893 89.9384 219.969 94.9872 219.969C105.256 219.969 112.68 231.75 115.482 243.425C116.723 248.565 117.065 253.62 116.423 257.66C115.717 262.207 113.835 265.232 111.011 266.459C109.642 267.051 108.123 267.347 106.54 267.347ZM83.1139 233.273C83.3065 233.273 83.4776 233.294 83.6488 233.315C87.9274 233.823 91.3932 240.295 91.3932 247.74C91.3932 252.563 92.7837 256.899 95.4151 260.262C97.0838 262.377 99.2018 264.026 101.534 265.042C104.593 266.353 107.866 266.459 110.497 265.338C115.29 263.265 116.808 254.403 114.241 243.764C112.808 237.778 110.262 232.258 107.096 228.218C103.523 223.67 99.3515 221.28 94.9872 221.28C90.3449 221.28 86.4085 223.078 83.3065 226.61C82.301 227.752 81.3811 229.043 80.5253 230.608C79.4557 232.554 78.5358 234.732 77.787 237.143C78.1507 236.551 78.5144 236.022 78.8994 235.557C80.4184 233.717 81.9587 233.273 83.1139 233.273Z" fill="#3FB1B5"/>
<path d="M108.465 266.924C108.144 266.924 107.866 266.691 107.823 266.353C104.7 237.355 97.5755 228.387 92.163 225.975C87.3281 223.818 83.242 226.631 83.1992 226.652C82.9211 226.864 82.5146 226.779 82.3007 226.504C82.0868 226.229 82.1723 225.827 82.4504 225.616C82.643 225.489 87.1784 222.359 92.6765 224.812C96.3133 226.441 99.4796 230.121 102.068 235.79C105.32 242.875 107.673 253.112 109.085 266.205C109.128 266.543 108.871 266.86 108.508 266.903C108.508 266.924 108.486 266.924 108.465 266.924Z" fill="#3FB1B5"/>
<path d="M26.4209 210.133C26.4209 213.623 26.0144 226.969 38.8932 227.583C51.772 228.196 53.0556 208.97 53.0556 208.97C53.0556 208.97 46.7232 191.964 39.7276 190.23C27.897 187.29 26.4209 210.133 26.4209 210.133Z" fill="#3FB1B5"/>
<path d="M90.7508 247.719H75.0908C78.7063 225.32 90.7508 233.738 90.7508 247.719Z" fill="#3FB1B5"/>
<path opacity="0.4" d="M356.692 83.2059V222.824C356.692 230.333 350.531 236.403 342.957 236.403H181.33C171.19 250.215 150.289 250.278 140.062 236.403L140.041 236.382C135.976 236.107 132.382 234.055 130.072 231.031L133.794 227.858L228.781 146.807L319.232 69.627H342.957C350.531 69.627 356.692 75.7185 356.692 83.2059Z" fill="white"/>
<path opacity="0.4" d="M110.754 266.522C107.908 267.791 104.464 267.601 101.276 266.226V284.035H67.9668L94.9225 261.044L101.298 255.608L106.154 251.463L115.546 243.573C118.284 255.122 116.765 263.794 110.754 266.522Z" fill="white"/>
<path d="M394.408 360.496V478.223H366.896L349.375 429.85L324.281 360.496H394.408Z" fill="#A0505A"/>
<path d="M324.281 360.496H394.408V398.293L332.624 383.53L324.281 360.496Z" fill="#73325A"/>
<path d="M395.05 478.857H366.447L348.199 428.476L349.696 429.279C349.739 429.3 353.29 431.183 360.521 432.114C367.196 432.981 378.492 433.171 394.259 429.216L395.05 429.025V478.857ZM367.346 477.588H393.767V430.654C378.149 434.482 366.939 434.25 360.243 433.383C355.387 432.748 352.178 431.712 350.488 431.035L367.346 477.588Z" fill="white"/>
<path d="M363.688 441.843C361.612 441.843 359.922 440.172 359.922 438.12C359.922 436.068 361.612 434.397 363.688 434.397C365.763 434.397 367.453 436.068 367.453 438.12C367.453 440.172 365.763 441.843 363.688 441.843ZM363.688 435.667C362.318 435.667 361.206 436.766 361.206 438.12C361.206 439.474 362.318 440.574 363.688 440.574C365.057 440.574 366.169 439.474 366.169 438.12C366.169 436.766 365.057 435.667 363.688 435.667Z" fill="white"/>
<path d="M378.578 451.806C376.503 451.806 374.812 450.135 374.812 448.083C374.812 446.031 376.503 444.36 378.578 444.36C380.653 444.36 382.343 446.031 382.343 448.083C382.343 450.135 380.653 451.806 378.578 451.806ZM378.578 445.629C377.209 445.629 376.096 446.729 376.096 448.083C376.096 449.437 377.209 450.536 378.578 450.536C379.947 450.536 381.059 449.437 381.059 448.083C381.059 446.729 379.947 445.629 378.578 445.629Z" fill="white"/>
<path d="M389.659 440.743C387.584 440.743 385.894 439.072 385.894 437.02C385.894 434.969 387.584 433.298 389.659 433.298C391.734 433.298 393.424 434.969 393.424 437.02C393.424 439.072 391.734 440.743 389.659 440.743ZM389.659 434.567C388.29 434.567 387.177 435.667 387.177 437.02C387.177 438.374 388.29 439.474 389.659 439.474C391.028 439.474 392.141 438.374 392.141 437.02C392.141 435.667 391.028 434.567 389.659 434.567Z" fill="white"/>
<path d="M385.274 463.395C383.198 463.395 381.508 461.724 381.508 459.673C381.508 457.621 383.198 455.95 385.274 455.95C387.349 455.95 389.039 457.621 389.039 459.673C389.039 461.724 387.349 463.395 385.274 463.395ZM385.274 457.219C383.904 457.219 382.792 458.319 382.792 459.673C382.792 461.026 383.904 462.126 385.274 462.126C386.643 462.126 387.755 461.026 387.755 459.673C387.755 458.319 386.643 457.219 385.274 457.219Z" fill="white"/>
<path d="M366.811 457.769C364.736 457.769 363.046 456.098 363.046 454.047C363.046 451.995 364.736 450.324 366.811 450.324C368.886 450.324 370.576 451.995 370.576 454.047C370.576 456.098 368.886 457.769 366.811 457.769ZM366.811 451.593C365.442 451.593 364.33 452.693 364.33 454.047C364.33 455.4 365.442 456.5 366.811 456.5C368.18 456.5 369.293 455.4 369.293 454.047C369.293 452.693 368.18 451.593 366.811 451.593Z" fill="white"/>
<path d="M371.903 474.69C369.828 474.69 368.138 473.019 368.138 470.968C368.138 468.916 369.828 467.245 371.903 467.245C373.978 467.245 375.668 468.916 375.668 470.968C375.668 473.019 373.978 474.69 371.903 474.69ZM371.903 468.514C370.534 468.514 369.421 469.614 369.421 470.968C369.421 472.321 370.534 473.421 371.903 473.421C373.272 473.421 374.384 472.321 374.384 470.968C374.384 469.614 373.272 468.514 371.903 468.514Z" fill="white"/>
<path d="M407.415 500.178L388.546 538.905C385.872 545.145 379.69 549.206 372.822 549.206H348.755C342.593 549.206 338.85 543.03 341.203 537.404L365.399 479.703C366.747 476.192 369.121 473.273 372.095 471.222C375.09 469.17 378.684 468.007 382.471 468.007C387.734 468.007 392.954 471.539 396.419 475.452L404.805 484.399C408.678 488.756 409.683 494.869 407.415 500.178Z" fill="#66B0F0"/>
<path d="M407.416 500.178L388.547 538.905C385.873 545.145 379.69 549.206 372.823 549.206H347.236C344.862 549.206 343.514 547.747 342.722 545.737H348.413C355.28 545.737 361.463 541.676 364.137 535.437L385.894 490.575C387.926 486.387 392.226 483.701 396.933 483.701C403.073 483.701 407.737 488.143 408.592 493.769C408.678 495.927 408.293 498.105 407.416 500.178Z" fill="white"/>
<path d="M372.822 549.84H347.236C344.861 549.84 343.128 548.529 342.123 545.97C342.037 545.779 342.08 545.547 342.187 545.377C342.315 545.208 342.508 545.102 342.722 545.102H348.412C355.023 545.102 360.97 541.211 363.537 535.183C363.537 535.183 363.537 535.161 363.559 535.161L385.316 490.3C387.455 485.901 392.012 483.066 396.933 483.066C403.115 483.066 408.292 487.529 409.234 493.684C409.234 493.705 409.234 493.727 409.234 493.748C409.319 496.032 408.913 498.295 408.014 500.431C408.014 500.431 408.014 500.453 407.993 500.453L389.124 539.159C386.343 545.652 379.946 549.84 372.822 549.84ZM343.727 546.372C344.54 547.873 345.674 548.571 347.236 548.571H372.822C379.433 548.571 385.38 544.679 387.947 538.651C387.947 538.651 387.947 538.63 387.969 538.63L406.838 499.924C407.651 497.978 408.036 495.926 407.95 493.832C407.094 488.333 402.473 484.335 396.933 484.335C392.504 484.335 388.397 486.895 386.471 490.85L364.714 535.69C361.933 542.184 355.536 546.372 348.412 546.372H343.727Z" fill="#66B0F0"/>
<path d="M403.073 482.537C400.805 481.311 398.067 480.422 395.671 480.422C391.071 480.422 386.814 483.066 384.824 487.17L362.297 533.617C359.43 540.322 352.798 544.658 345.418 544.658H341.267C341.053 544.256 340.904 543.833 340.754 543.389H345.418C352.285 543.389 358.446 539.349 361.12 533.11L361.142 533.089L383.69 486.62C385.894 482.072 390.6 479.153 395.692 479.153C397.318 479.153 399.265 479.682 400.933 480.253L403.073 482.537Z" fill="white"/>
<path d="M324.281 360.496L318.911 429.851L316.515 460.921C316.515 460.921 300.876 478.138 283.077 467.521L274.841 429.872L255.993 343.723C250.901 320.436 266.989 297.783 290.886 294.632L324.281 360.496Z" fill="#A0505A"/>
<path d="M295.122 472.448C291.292 472.448 287.078 471.497 282.756 468.916L282.521 468.768L274.006 428.962L275.033 429.279C295.293 435.286 318.526 429.322 318.761 429.258L319.638 429.025L317.157 462.042L317.007 462.211C316.836 462.381 312.942 466.632 306.76 469.635C303.658 471.116 299.636 472.448 295.122 472.448ZM283.655 467.964C290.757 472.11 298.331 472.279 306.161 468.493C311.466 465.913 315.146 462.275 315.895 461.492L318.205 430.675C316.258 431.119 311.209 432.198 304.684 432.79C297.175 433.488 286.158 433.657 275.675 430.781L283.655 467.964Z" fill="white"/>
<path d="M294.33 449.669C292.255 449.669 290.564 447.998 290.564 445.946C290.564 443.895 292.255 442.224 294.33 442.224C296.405 442.224 298.095 443.895 298.095 445.946C298.095 447.998 296.405 449.669 294.33 449.669ZM294.33 443.493C292.961 443.493 291.848 444.593 291.848 445.946C291.848 447.3 292.961 448.4 294.33 448.4C295.699 448.4 296.811 447.3 296.811 445.946C296.811 444.593 295.699 443.493 294.33 443.493Z" fill="white"/>
<path d="M314.183 444.931C312.108 444.931 310.417 443.261 310.417 441.209C310.417 439.157 312.108 437.486 314.183 437.486C316.258 437.486 317.948 439.157 317.948 441.209C317.948 443.261 316.258 444.931 314.183 444.931ZM314.183 438.755C312.814 438.755 311.701 439.855 311.701 441.209C311.701 442.563 312.814 443.662 314.183 443.662C315.552 443.662 316.664 442.563 316.664 441.209C316.664 439.855 315.552 438.755 314.183 438.755Z" fill="white"/>
<path d="M282.35 440.743C280.275 440.743 278.584 439.072 278.584 437.02C278.584 434.969 280.275 433.298 282.35 433.298C284.425 433.298 286.115 434.969 286.115 437.02C286.115 439.072 284.425 440.743 282.35 440.743ZM282.35 434.567C280.981 434.567 279.868 435.667 279.868 437.02C279.868 438.374 280.981 439.474 282.35 439.474C283.719 439.474 284.831 438.374 284.831 437.02C284.831 435.667 283.719 434.567 282.35 434.567Z" fill="white"/>
<path d="M291.207 466.483C289.131 466.483 287.441 464.812 287.441 462.761C287.441 460.709 289.131 459.038 291.207 459.038C293.282 459.038 294.972 460.709 294.972 462.761C294.972 464.812 293.282 466.483 291.207 466.483ZM291.207 460.307C289.837 460.307 288.725 461.407 288.725 462.761C288.725 464.114 289.837 465.214 291.207 465.214C292.576 465.214 293.688 464.114 293.688 462.761C293.688 461.407 292.576 460.307 291.207 460.307Z" fill="white"/>
<path d="M305.775 460.308C303.7 460.308 302.01 458.637 302.01 456.585C302.01 454.533 303.7 452.862 305.775 452.862C307.85 452.862 309.54 454.533 309.54 456.585C309.54 458.637 307.85 460.308 305.775 460.308ZM305.775 454.131C304.406 454.131 303.293 455.231 303.293 456.585C303.293 457.939 304.406 459.038 305.775 459.038C307.144 459.038 308.257 457.939 308.257 456.585C308.257 455.231 307.144 454.131 305.775 454.131Z" fill="white"/>
<path d="M337.138 468.324L316.515 549.862H310.011C309.712 549.862 309.434 549.841 309.134 549.819C304.214 549.375 300.063 545.272 299.015 540.428L283.056 467.478C300.855 478.117 316.515 460.9 316.515 460.9L337.138 468.324Z" fill="#66B0F0"/>
<path d="M338.186 510.162C342.529 487.488 343.727 470.165 336.239 468.769C328.751 467.373 315.423 482.412 311.081 505.086C306.738 527.76 309.005 547.811 316.493 549.207C323.981 550.624 333.843 532.857 338.186 510.162Z" fill="white"/>
<path d="M317.349 549.925C317.028 549.925 316.686 549.904 316.365 549.841C312.471 549.122 309.754 543.918 308.706 535.204C307.701 526.807 308.321 516.063 310.439 504.979C312.45 494.51 316.536 484.759 321.949 477.525C326.912 470.905 332.303 467.394 336.346 468.155C340.24 468.874 342.165 473.232 342.272 481.481C342.358 488.207 341.224 497.619 338.806 510.288C337.095 519.214 334.506 527.611 331.319 534.57C328.174 541.444 324.73 546.266 321.371 548.529C320.002 549.439 318.654 549.925 317.349 549.925ZM335.234 469.319C331.811 469.319 327.211 472.661 322.997 478.287C317.691 485.372 313.691 494.933 311.701 505.212C309.605 516.189 308.984 526.786 309.968 535.056C310.931 543.051 313.348 547.979 316.6 548.593C317.841 548.826 319.21 548.445 320.665 547.472C327.233 543.051 334.186 527.674 337.544 510.056C339.962 497.492 341.074 488.143 340.989 481.502C340.903 474.057 339.256 469.996 336.111 469.403C335.833 469.34 335.533 469.319 335.234 469.319Z" fill="#66B0F0"/>
<path d="M308.086 504.726C305.839 516.486 305.176 527.844 306.246 536.727C307.016 543.115 308.642 547.662 310.867 549.862H310.011C309.711 549.862 309.433 549.841 309.134 549.82C307.123 547.197 305.689 542.798 304.962 536.875C303.871 527.886 304.534 516.38 306.823 504.493C308.984 493.241 313.348 482.686 319.146 474.755C322.612 470.017 326.249 466.696 329.564 465.194L331.49 465.829C323.852 468.071 312.257 482.961 308.086 504.726Z" fill="white"/>
<path d="M290.886 294.611L388.482 284.67L486.036 311.722L485.202 324.54C483.875 344.76 466.247 360.497 445.752 360.497H324.302L290.886 294.611Z" fill="#FE5244"/>
<path d="M441.452 352.249H320.002C319.638 352.249 319.36 351.974 319.36 351.614C319.36 351.255 319.638 350.98 320.002 350.98H441.452C450.737 350.98 460.471 346.136 468.173 337.655C475.468 329.617 479.832 319.57 479.832 310.793C479.832 310.433 480.11 310.158 480.474 310.158C480.838 310.158 481.116 310.433 481.116 310.793C481.116 319.888 476.623 330.252 469.135 338.522C461.177 347.236 451.101 352.249 441.452 352.249Z" fill="white"/>
<path d="M431.89 341.673H315.082C314.718 341.673 314.44 341.398 314.44 341.039C314.44 340.679 314.718 340.404 315.082 340.404H431.89C439.998 340.404 448.384 336.639 455.465 329.786C462.118 323.356 466.782 315.065 468.258 307.028C468.323 306.689 468.665 306.457 469.007 306.52C469.349 306.584 469.585 306.922 469.521 307.26C466.504 323.526 450.309 341.673 431.89 341.673Z" fill="white"/>
<path d="M421.599 330.886H308.878C308.514 330.886 308.236 330.611 308.236 330.252C308.236 329.892 308.514 329.617 308.878 329.617H421.599C437.003 329.617 450.373 315.911 455.144 303.03C455.272 302.692 455.636 302.523 455.957 302.65C456.299 302.776 456.471 303.136 456.342 303.453C453.689 310.623 448.897 317.371 442.822 322.447C436.211 327.967 428.873 330.886 421.599 330.886Z" fill="white"/>
<path d="M416.037 319.253H303.315C302.951 319.253 302.673 318.978 302.673 318.618C302.673 318.259 302.951 317.984 303.315 317.984H416.037C426.648 317.984 437.772 311.152 445.089 300.175C445.281 299.879 445.688 299.794 445.987 299.984C446.287 300.175 446.373 300.577 446.18 300.873C438.607 312.21 427.076 319.253 416.037 319.253Z" fill="white"/>
<path d="M410.689 308.677H297.967C297.603 308.677 297.325 308.402 297.325 308.043C297.325 307.683 297.603 307.408 297.967 307.408H410.689C418.861 307.408 427.097 303.686 433.879 296.938C434.136 296.685 434.542 296.685 434.778 296.938C435.034 297.192 435.034 297.594 434.778 297.827C427.761 304.828 419.203 308.677 410.689 308.677Z" fill="white"/>
<path d="M404.912 297.89H292.191C291.827 297.89 291.549 297.615 291.549 297.256C291.549 296.896 291.827 296.621 292.191 296.621H404.912C409.726 296.621 414.561 295.268 419.31 292.624C419.61 292.455 420.016 292.56 420.187 292.856C420.358 293.152 420.251 293.554 419.952 293.724C415.01 296.494 409.94 297.89 404.912 297.89Z" fill="white"/>
<path d="M324.067 361.132C323.832 361.132 323.597 361.005 323.49 360.772L290.094 294.887C289.945 294.569 290.073 294.189 290.373 294.041C290.694 293.892 291.079 294.019 291.228 294.316L324.623 360.201C324.773 360.518 324.645 360.899 324.345 361.047C324.26 361.111 324.174 361.132 324.067 361.132Z" fill="white"/>
<path d="M491.385 223.438C482.185 226.018 473.136 225.257 472.173 222.486C471.275 219.842 475.34 215.316 483.576 212.312C483.983 212.164 484.41 212.016 484.838 211.868C487.32 211.043 489.802 210.515 492.133 210.24C499.043 209.372 504.67 210.599 505.376 212.672C506.339 215.443 501.119 220.709 491.385 223.438Z" fill="white"/>
<path d="M480.431 225.658C475.767 225.658 472.237 224.622 471.553 222.697C470.398 219.313 475.468 214.596 483.341 211.72C483.747 211.572 484.175 211.424 484.603 211.276H484.624C487.042 210.472 489.545 209.922 492.048 209.626C499.129 208.738 505.119 209.964 505.975 212.481C506.274 213.306 506.124 214.321 505.568 215.379C503.771 218.763 498.273 222.19 491.556 224.072C487.683 225.13 483.768 225.658 480.431 225.658ZM496.519 210.599C495.214 210.599 493.78 210.683 492.219 210.874C489.801 211.17 487.384 211.699 485.052 212.481C484.624 212.629 484.196 212.777 483.811 212.925C480.089 214.279 476.923 216.077 474.912 218.002C473.222 219.609 472.43 221.217 472.794 222.295C473.5 224.347 481.736 225.489 491.213 222.845C496.455 221.386 502.573 218.319 504.434 214.787C504.819 214.046 504.948 213.391 504.777 212.883C504.392 211.762 501.354 210.599 496.519 210.599Z" fill="#3FB1B5"/>
<path d="M485.565 285.114H482.035L472.772 223.289V223.247L472.537 221.703C472.986 218.89 477.436 214.913 485.287 212.333C489.202 211.043 493.096 210.472 496.412 210.408L499.792 219.567L500.113 220.434L510.809 249.432C517.227 266.755 504.242 285.114 485.565 285.114Z" fill="#A0505A"/>
<path d="M500.006 220.222C497.759 221.618 494.85 222.908 491.384 223.881C483.426 226.102 475.361 225.193 472.772 223.289V223.247L472.537 221.703C472.986 218.89 477.436 214.913 485.287 212.333C489.202 211.043 493.096 210.472 496.412 210.408L500.006 220.222Z" fill="#73325A"/>
<path d="M370.982 234.245L359.751 261.869C354.21 275.511 340.818 284.458 325.928 284.458H174.955V270.795C174.955 267.495 177.009 264.534 180.132 263.37L195.642 257.554C197.054 257.025 198.531 256.75 200.028 256.75H217.635L317.285 246.809L334.485 207.87L370.982 234.245Z" fill="#A0505A"/>
<path d="M175.597 276.569C175.233 276.569 174.955 276.294 174.955 275.934C174.955 273.164 176.645 270.731 179.277 269.737L190.979 265.359C191.3 265.232 191.685 265.401 191.813 265.718C191.941 266.036 191.77 266.416 191.449 266.543L179.747 270.922C177.629 271.725 176.239 273.692 176.239 275.934C176.239 276.294 175.961 276.569 175.597 276.569Z" fill="#73325A"/>
<path d="M175.597 283.548C175.233 283.548 174.955 283.273 174.955 282.914C174.955 280.143 176.645 277.711 179.277 276.717L190.979 272.338C191.3 272.211 191.685 272.381 191.813 272.698C191.941 273.015 191.77 273.396 191.449 273.523L179.747 277.901C177.629 278.705 176.239 280.672 176.239 282.914C176.239 283.273 175.961 283.548 175.597 283.548Z" fill="#73325A"/>
<path d="M179.512 284.458C179.255 284.458 178.998 284.289 178.913 284.035C178.784 283.697 178.956 283.337 179.298 283.231L191 279.065C191.342 278.938 191.706 279.107 191.813 279.445C191.941 279.784 191.77 280.143 191.428 280.249L179.726 284.416C179.662 284.437 179.576 284.458 179.512 284.458Z" fill="#73325A"/>
<path d="M189.995 259.902C189.995 259.902 200.948 232.257 204.457 232.723C207.965 233.188 194.744 258.125 194.744 258.125L189.995 259.902Z" fill="#FE5244"/>
<path d="M334.485 207.892L331.96 213.581L364.286 250.701L370.982 234.246L334.485 207.892Z" fill="#73325A"/>
<path d="M472.772 223.311L486.036 311.722L388.504 284.67L370.982 234.225L325.757 201.546L341.631 182.849C355.793 166.161 376.694 156.516 398.73 156.516H430.071C457.326 156.516 482.421 171.237 495.492 194.884L505.654 212.27C505.654 212.27 502.595 207.828 486.1 212.291C471.574 216.246 472.772 223.311 472.772 223.311Z" fill="#3FB1B5"/>
<path d="M370.983 234.457C370.94 234.457 370.876 234.457 370.833 234.436C370.491 234.351 370.277 234.013 370.362 233.675L375.432 211.931C375.518 211.593 375.86 211.381 376.203 211.466C376.545 211.551 376.759 211.889 376.673 212.227L371.603 233.971C371.539 234.267 371.282 234.457 370.983 234.457Z" fill="white"/>
<path d="M483.575 291.713C483.276 291.713 482.998 291.502 482.934 291.185L466.439 189.808C466.375 189.469 466.61 189.131 466.974 189.089C467.316 189.025 467.659 189.258 467.701 189.617L484.196 290.994C484.26 291.333 484.025 291.671 483.661 291.713C483.64 291.713 483.618 291.713 483.575 291.713Z" fill="white"/>
<path d="M485.822 312.356C485.758 312.356 485.715 312.356 485.651 312.335L388.311 284.881C387.969 284.775 387.776 284.436 387.862 284.098C387.969 283.76 388.311 283.569 388.654 283.654L485.993 311.108C486.336 311.214 486.528 311.552 486.443 311.89C486.357 312.165 486.1 312.356 485.822 312.356Z" fill="white"/>
<path d="M393.745 142.386V156.599L419.118 156.388V131.303L393.745 142.386Z" fill="#A0505A"/>
<path d="M421.172 126.925V127.306C421.172 131.113 418.262 134.201 414.411 134.201H412.914C411.951 137.966 403.394 142.365 397.318 142.365H390.237C382.492 142.365 376.566 135.491 377.829 127.919L378.171 125.867L376.074 124.704C374.876 124.027 374.534 122.483 375.368 121.383L379.904 115.461L380.888 109.623C381.679 104.822 384.867 100.909 389.103 98.9844C390.772 117.576 407.373 119.776 411.758 120.03H414.197C418.048 120.03 421.172 123.118 421.172 126.925Z" fill="#A0505A"/>
<path d="M409.94 129.379C409.576 129.379 409.298 129.104 409.298 128.744C409.298 125.402 412.058 122.674 415.438 122.674C415.802 122.674 416.08 122.949 416.08 123.308C416.08 123.668 415.802 123.943 415.438 123.943C412.764 123.943 410.582 126.1 410.582 128.744C410.582 129.104 410.304 129.379 409.94 129.379Z" fill="#73325A"/>
<path d="M386.75 120.22C387.352 120.22 387.841 119.103 387.841 117.724C387.841 116.346 387.352 115.229 386.75 115.229C386.147 115.229 385.659 116.346 385.659 117.724C385.659 119.103 386.147 120.22 386.75 120.22Z" fill="#73325A"/>
<path d="M391.2 114.573C391.007 114.573 390.814 114.488 390.686 114.319C387.841 110.427 385.188 110.639 385.145 110.639C384.782 110.681 384.482 110.427 384.439 110.068C384.396 109.729 384.653 109.412 385.017 109.37C385.145 109.348 388.44 109.095 391.713 113.557C391.927 113.832 391.863 114.234 391.563 114.446C391.456 114.53 391.328 114.573 391.2 114.573Z" fill="#73325A"/>
<path d="M411.758 120.03H414.197C418.048 120.03 421.172 123.118 421.172 126.925V127.306C421.172 131.113 418.262 134.201 414.411 134.201L412.764 135.343C405.832 139.742 396.248 157.044 398.601 169.291C401.254 183.06 413.384 186.127 424.594 184.012C435.805 181.897 443.977 175.445 441.324 161.655C441.025 160.026 440.533 158.398 439.912 156.79C440.105 156.854 440.276 156.917 440.468 156.981C453.946 160.619 469.777 161.042 474.142 150.635C478.506 140.229 477.522 129.928 464.408 124.556C456.792 121.426 446.437 121.447 438.415 123.604C442.458 109.708 435.27 94.2466 422.07 92.7026C401.34 90.2702 389.445 98.7306 389.124 98.9633C389.103 101.417 390.793 118.824 411.758 120.03Z" fill="#73325A"/>
<path d="M440.468 157.636C440.169 157.636 439.891 157.424 439.848 157.128C437.58 145.389 427.868 138.917 427.761 138.854C427.589 138.748 427.482 138.536 427.482 138.325C427.482 138.113 427.589 137.923 427.761 137.796C434.393 133.164 437.259 126.48 438.372 122.927C438.479 122.588 438.842 122.398 439.163 122.504C439.506 122.61 439.698 122.969 439.591 123.286C438.479 126.882 435.655 133.481 429.215 138.304C431.633 140.102 439.099 146.405 441.11 156.874C441.174 157.213 440.939 157.551 440.597 157.615C440.554 157.636 440.511 157.636 440.468 157.636Z" fill="white"/>
<path d="M444.769 123.287H439.1C438.736 123.287 438.458 123.012 438.458 122.652V117.047C438.458 113.769 441.154 111.104 444.47 111.104H444.769C448.085 111.104 450.781 113.769 450.781 117.047V117.343C450.802 118.908 450.182 120.41 449.048 121.531C447.914 122.652 446.395 123.287 444.769 123.287ZM439.742 122.017H444.769C446.053 122.017 447.229 121.531 448.128 120.621C449.005 119.733 449.497 118.57 449.497 117.343V117.047C449.497 114.467 447.379 112.373 444.769 112.373H444.47C441.86 112.373 439.742 114.467 439.742 117.047V122.017Z" fill="#FE5244"/>
<path d="M447.935 131.874C445.646 131.874 443.442 130.774 442.137 128.743L438.5 123.033C438.308 122.737 438.393 122.335 438.693 122.165L444.469 118.57C446.009 117.618 447.849 117.301 449.625 117.703C451.401 118.104 452.919 119.162 453.904 120.685L454.246 121.214C455.23 122.737 455.529 124.556 455.123 126.311C454.717 128.067 453.647 129.568 452.107 130.541L451.572 130.88C450.459 131.535 449.197 131.874 447.935 131.874ZM439.934 122.885L443.228 128.067C444.854 130.605 448.298 131.366 450.908 129.759L451.443 129.42C452.706 128.638 453.561 127.432 453.882 125.994C454.203 124.556 453.946 123.096 453.155 121.848L452.813 121.319C452.021 120.071 450.802 119.225 449.347 118.908C447.892 118.591 446.416 118.845 445.154 119.627L439.934 122.885Z" fill="#FE5244"/>
<path d="M412.892 148.795C412.743 148.795 412.593 148.795 412.443 148.774C410.839 148.647 409.384 147.928 408.335 146.722L408.143 146.489C407.095 145.305 406.581 143.782 406.688 142.217C406.795 140.631 407.523 139.171 408.742 138.135L412.764 134.328C412.892 134.201 413.063 134.137 413.235 134.158C413.406 134.158 413.577 134.243 413.684 134.37L417.642 138.79C418.69 139.996 419.225 141.54 419.096 143.126C418.968 144.713 418.241 146.151 417.021 147.187L416.765 147.378C415.716 148.287 414.347 148.795 412.892 148.795ZM413.192 135.681L409.64 139.044L409.619 139.065C408.656 139.89 408.079 141.032 407.993 142.301C407.908 143.549 408.314 144.734 409.127 145.664C409.127 145.664 409.127 145.686 409.148 145.686L409.341 145.918C410.154 146.849 411.288 147.42 412.55 147.526C413.812 147.61 415.032 147.209 415.994 146.405L416.251 146.193C417.192 145.39 417.77 144.269 417.877 143.021C417.963 141.773 417.556 140.567 416.743 139.615L413.192 135.681Z" fill="#FE5244"/>
<path d="M421.086 146.469C418.091 146.469 415.331 144.502 414.475 141.519L412.657 135.026C412.571 134.688 412.764 134.349 413.106 134.243L419.674 132.446C421.428 131.959 423.268 132.192 424.851 133.059C426.434 133.947 427.59 135.385 428.082 137.12L428.253 137.733C428.745 139.468 428.509 141.287 427.632 142.852C426.734 144.417 425.279 145.559 423.525 146.046L422.904 146.215C422.284 146.405 421.685 146.469 421.086 146.469ZM415.716 141.181C416.551 144.079 419.61 145.813 422.541 145.009L423.161 144.84C424.594 144.438 425.771 143.529 426.498 142.26C427.226 140.991 427.397 139.51 427.012 138.093L426.841 137.479C426.434 136.062 425.514 134.899 424.231 134.18C422.947 133.461 421.45 133.292 420.016 133.672L414.069 135.301L415.716 141.181Z" fill="#FE5244"/>
<path d="M319.446 549.84C319.403 549.84 319.36 549.841 319.317 549.819C318.975 549.756 318.74 549.417 318.825 549.058L356.093 376.613C356.157 376.275 356.499 376.042 356.863 376.127C357.205 376.19 357.44 376.529 357.355 376.888L320.066 549.333C320.002 549.629 319.745 549.84 319.446 549.84Z" fill="#FFCF2D"/>
<path d="M489.352 549.841C489.052 549.841 488.795 549.63 488.731 549.333L451.464 376.889C451.4 376.55 451.614 376.212 451.956 376.127C452.298 376.064 452.641 376.275 452.726 376.614L489.993 549.058C490.058 549.397 489.844 549.735 489.501 549.82C489.437 549.841 489.394 549.841 489.352 549.841Z" fill="#FFCF2D"/>
<path d="M480.581 511.557H327.704C327.34 511.557 327.062 511.282 327.062 510.923C327.062 510.563 327.34 510.288 327.704 510.288H480.581C480.945 510.288 481.223 510.563 481.223 510.923C481.223 511.282 480.945 511.557 480.581 511.557Z" fill="#FFCF2D"/>
<path d="M481.415 376.761H327.361C325.414 376.761 323.831 375.196 323.831 373.271V363.986C323.831 362.061 325.414 360.496 327.361 360.496H481.415C483.361 360.496 484.945 362.061 484.945 363.986V373.271C484.945 375.196 483.361 376.761 481.415 376.761Z" fill="white"/>
<path d="M481.415 377.396H327.361C325.051 377.396 323.189 375.555 323.189 373.271V363.986C323.189 361.701 325.051 359.861 327.361 359.861H481.415C483.725 359.861 485.587 361.701 485.587 363.986V373.271C485.587 375.555 483.725 377.396 481.415 377.396ZM327.361 361.13C325.778 361.13 324.473 362.421 324.473 363.986V373.271C324.473 374.836 325.778 376.127 327.361 376.127H481.415C482.998 376.127 484.303 374.836 484.303 373.271V363.986C484.303 362.421 482.998 361.13 481.415 361.13H327.361Z" fill="#66B0F0"/>
</svg>
