<svg width="122" height="287" viewBox="0 0 122 287" fill="none" xmlns="http://www.w3.org/2000/svg">
<g style="mix-blend-mode:multiply" opacity="0.12" clip-path="url(#clip0_2234_9664)">
<path d="M143.598 0C64.2155 0 0 64.2155 0 143.598C0 222.784 64.2155 287.197 143.598 287.197C222.784 287.197 287.197 222.981 287.197 143.598C287 64.2155 222.784 0 143.598 0ZM143.598 277.939C69.337 277.939 9.25806 217.86 9.25806 143.598C9.25806 69.337 69.337 9.25806 143.598 9.25806C217.86 9.25806 277.939 69.337 277.939 143.598C277.939 217.663 217.663 277.939 143.598 277.939Z" fill="#FFCF2D"/>
<path d="M143.476 32C81.4269 32 31 82.4269 31 144.476C31 206.524 81.4269 256.951 143.476 256.951C205.524 256.951 255.951 206.721 255.951 144.673C255.951 82.4269 205.524 32 143.476 32ZM143.476 239.814C90.8819 239.814 48.1373 197.069 48.1373 144.476C48.1373 91.882 90.8819 49.1373 143.476 49.1373C196.069 49.1373 238.814 91.882 238.814 144.476C238.814 197.069 196.069 239.814 143.476 239.814Z" fill="#FFCF2D"/>
</g>
<defs>
<clipPath id="clip0_2234_9664">
<rect width="287" height="287" fill="white"/>
</clipPath>
</defs>
</svg>
