<svg width="177" height="179" viewBox="0 0 177 179" fill="none" xmlns="http://www.w3.org/2000/svg">
<g opacity="0.2" clip-path="url(#clip0_2734_3117)">
<path d="M34.3921 0.597691C-44.1604 0.26728 -107.969 63.5437 -108.295 142.096C-108.621 220.454 -45.343 284.46 33.2095 284.79C111.567 285.12 175.57 221.844 175.897 143.292C176.029 64.7383 112.75 0.927282 34.3921 0.597691ZM33.2476 275.629C-40.237 275.32 -99.44 215.619 -99.1342 142.135C-98.8284 68.6502 -39.1306 9.44981 34.354 9.7589C107.839 10.068 167.042 69.7685 166.736 143.253C166.431 216.543 106.537 275.937 33.2476 275.629Z" fill="white"/>
<path d="M34.2657 31.2006C-27.1339 30.9423 -77.2408 80.6318 -77.4963 142.031C-77.7518 203.431 -28.0601 253.54 33.3395 253.799C94.739 254.057 144.845 204.562 145.101 143.163C145.357 81.5681 95.6653 31.4588 34.2657 31.2006ZM33.41 236.841C-18.6334 236.622 -60.7549 194.146 -60.5384 142.103C-60.3218 90.0592 -17.8483 47.9397 34.1952 48.1586C86.2386 48.3775 128.36 90.8529 128.144 142.896C127.927 194.94 85.4535 237.059 33.41 236.841Z" fill="white"/>
<path d="M34.0618 80.1245C-0.438932 79.9794 -28.6241 107.93 -28.7677 142.43C-28.9113 176.931 -1.15457 205.117 33.5411 205.263C68.0418 205.408 96.227 177.458 96.3705 142.957C96.3192 108.455 68.5625 80.2696 34.0618 80.1245ZM33.6619 176.22C15.1446 176.142 0.198247 161.07 0.275302 142.553C0.352356 124.035 15.4236 109.09 33.9409 109.167C52.4583 109.245 67.4046 124.317 67.3276 142.835C67.2505 161.352 52.1793 176.298 33.6619 176.22Z" fill="white"/>
</g>
<defs>
<clipPath id="clip0_2734_3117">
<rect width="284" height="284" fill="white" transform="matrix(0.999991 0.00420621 -0.00416118 0.999991 -107.704 0)"/>
</clipPath>
</defs>
</svg>
