<svg width="178" height="139" viewBox="0 0 178 139" fill="none" xmlns="http://www.w3.org/2000/svg">
<g opacity="0.8" clip-path="url(#clip0_2734_3122)">
<path d="M6.26882 40.6052C6.2625 42.1246 5.11442 43.2593 3.58998 43.2529C2.06554 43.2465 0.926949 42.1022 0.933272 40.5828C0.939594 39.0634 2.08767 37.9286 3.61211 37.935C5.13655 37.9415 6.27462 39.2124 6.26882 40.6052Z" fill="white"/>
<path d="M29.0081 40.7009C29.0018 42.2203 27.8537 43.355 26.3292 43.3486C24.8048 43.3422 23.6662 42.1979 23.6725 40.6785C23.6789 39.1591 24.8269 38.0243 26.3514 38.0308C27.7488 38.0366 29.0139 39.3081 29.0081 40.7009Z" fill="white"/>
<path d="M51.6204 40.7956C51.6141 42.315 50.466 43.4498 48.9415 43.4434C47.4171 43.4369 46.2785 42.2926 46.2848 40.7732C46.2912 39.2538 47.4392 38.1191 48.9637 38.1255C50.4881 38.1319 51.6262 39.4029 51.6204 40.7956Z" fill="white"/>
<path d="M74.3601 40.8913C74.3538 42.4107 73.2057 43.5455 71.6813 43.5391C70.1569 43.5327 69.0183 42.3883 69.0246 40.8689C69.0309 39.3495 70.179 38.2148 71.7034 38.2212C73.2279 38.2276 74.3659 39.4986 74.3601 40.8913Z" fill="white"/>
<path d="M97.0999 40.987C97.0936 42.5064 95.9455 43.6412 94.421 43.6348C92.8966 43.6284 91.758 42.484 91.7643 40.9646C91.7706 39.4452 92.9187 38.3105 94.4432 38.3169C95.8406 38.3228 97.1057 39.5943 97.0999 40.987Z" fill="white"/>
<path d="M119.84 41.0827C119.833 42.6021 118.685 43.7369 117.161 43.7305C115.636 43.7241 114.498 42.5797 114.504 41.0603C114.51 39.5409 115.658 38.4062 117.183 38.4126C118.707 38.419 119.845 39.69 119.84 41.0827Z" fill="white"/>
<path d="M142.452 41.1775C142.446 42.6969 141.298 43.8316 139.773 43.8252C138.249 43.8188 137.11 42.6744 137.116 41.155C137.123 39.6356 138.271 38.5009 139.795 38.5073C141.32 38.5137 142.458 39.7847 142.452 41.1775Z" fill="white"/>
<path d="M165.193 41.2732C165.187 42.7926 164.039 43.9273 162.514 43.9209C160.99 43.9145 159.851 42.7701 159.858 41.2507C159.864 39.7313 161.012 38.5966 162.536 38.603C164.061 38.6094 165.199 39.8804 165.193 41.2732Z" fill="white"/>
<path d="M6.19021 59.4705C6.18389 60.9898 5.03581 62.1246 3.51137 62.1182C1.98693 62.1118 0.848336 60.9674 0.854658 59.448C0.860981 57.9286 2.00905 56.7939 3.5335 56.8003C5.05794 56.8067 6.19653 57.9511 6.19021 59.4705Z" fill="white"/>
<path d="M28.93 59.5662C28.9236 61.0855 27.7756 62.2203 26.2511 62.2139C24.7267 62.2075 23.5881 61.0631 23.5944 59.5437C23.6007 58.0243 24.7488 56.8896 26.2732 56.896C27.6707 56.9019 28.9363 58.0468 28.93 59.5662Z" fill="white"/>
<path d="M51.5423 59.6609C51.5359 61.1803 50.3879 62.315 48.8634 62.3086C47.339 62.3022 46.2004 61.1578 46.2067 59.6384C46.213 58.119 47.3611 56.9843 48.8855 56.9907C50.41 56.9971 51.5486 58.1415 51.5423 59.6609Z" fill="white"/>
<path d="M74.282 59.7566C74.2757 61.276 73.1276 62.4107 71.6032 62.4043C70.0787 62.3979 68.9401 61.2535 68.9465 59.7341C68.9528 58.2147 70.1009 57.08 71.6253 57.0864C73.1497 57.0928 74.2883 58.2372 74.282 59.7566Z" fill="white"/>
<path d="M97.0213 59.8523C97.0149 61.3717 95.8669 62.5064 94.3424 62.5C92.818 62.4936 91.6794 61.3492 91.6857 59.8298C91.692 58.3104 92.8401 57.1757 94.3646 57.1821C95.762 57.188 97.0276 58.3329 97.0213 59.8523Z" fill="white"/>
<path d="M119.761 59.948C119.755 61.4674 118.607 62.6021 117.082 62.5957C115.558 62.5893 114.419 61.4449 114.425 59.9255C114.432 58.4062 115.58 57.2714 117.104 57.2778C118.629 57.2842 119.767 58.4286 119.761 59.948Z" fill="white"/>
<path d="M142.373 60.0437C142.367 61.5631 141.219 62.6978 139.694 62.6914C138.17 62.685 137.031 61.5406 137.038 60.0213C137.044 58.5019 138.192 57.3671 139.717 57.3735C141.241 57.3799 142.38 58.5243 142.373 60.0437Z" fill="white"/>
<path d="M165.115 60.1394C165.108 61.6588 163.96 62.7935 162.436 62.7871C160.911 62.7807 159.773 61.6363 159.779 60.117C159.785 58.5976 160.933 57.4628 162.458 57.4692C163.982 57.4756 165.121 58.62 165.115 60.1394Z" fill="white"/>
<path d="M6.42507 2.99974C6.41875 4.51914 5.27067 5.65388 3.74623 5.64746C2.22179 5.64105 1.0832 4.4967 1.08952 2.9773C1.09584 1.45791 2.24392 0.323169 3.76836 0.329581C5.2928 0.335993 6.43139 1.48035 6.42507 2.99974Z" fill="white"/>
<path d="M29.1648 3.09545C29.1585 4.61484 28.0104 5.74958 26.486 5.74317C24.9615 5.73675 23.8229 4.5924 23.8293 3.073C23.8356 1.55361 24.9837 0.418872 26.5081 0.425284C27.9055 0.431162 29.1711 1.57605 29.1648 3.09545Z" fill="white"/>
<path d="M51.7771 3.19017C51.7708 4.70957 50.6227 5.84431 49.0983 5.83789C47.5738 5.83148 46.4352 4.68713 46.4416 3.16773C46.4479 1.64834 47.723 0.514133 49.1204 0.52001C50.6449 0.526423 51.7834 1.67078 51.7771 3.19017Z" fill="white"/>
<path d="M74.5169 3.28588C74.5105 4.80527 73.3625 5.94001 71.838 5.9336C70.3136 5.92718 69.175 4.78283 69.1813 3.26343C69.1876 1.74404 70.4628 0.609836 71.8602 0.615714C73.2576 0.621591 74.5232 1.76648 74.5169 3.28588Z" fill="white"/>
<path d="M97.2581 3.38158C97.2518 4.90098 96.1037 6.03571 94.5792 6.0293C93.0548 6.02289 91.9162 4.87853 91.9225 3.35914C91.9289 1.83974 93.0769 0.705004 94.6014 0.711417C95.9988 0.717294 97.2644 1.86218 97.2581 3.38158Z" fill="white"/>
<path d="M119.996 3.47728C119.99 4.99668 118.842 6.13142 117.318 6.125C115.793 6.11859 114.654 4.97424 114.661 3.45484C114.667 1.93544 115.815 0.800708 117.34 0.80712C118.864 0.813532 120.003 1.95789 119.996 3.47728Z" fill="white"/>
<path d="M142.609 3.57299C142.602 5.09238 141.454 6.22712 139.93 6.22071C138.405 6.21429 137.267 5.06994 137.273 3.55054C137.279 2.03115 138.428 0.896411 139.952 0.902823C141.476 0.909235 142.615 2.05359 142.609 3.57299Z" fill="white"/>
<path d="M165.349 3.66869C165.343 5.18808 164.195 6.32282 162.671 6.31641C161.146 6.31 160.008 5.16564 160.014 3.64625C160.02 2.12685 161.168 0.992114 162.693 0.998526C164.217 1.00494 165.356 2.14929 165.349 3.66869Z" fill="white"/>
<path d="M6.34646 21.866C6.34014 23.3854 5.19206 24.5201 3.66762 24.5137C2.14318 24.5073 1.00511 23.2363 1.01091 21.8435C1.01723 20.3241 2.1653 19.1894 3.68975 19.1958C5.21419 19.2022 6.35278 20.3466 6.34646 21.866Z" fill="white"/>
<path d="M29.0862 21.9617C29.0799 23.4811 27.9318 24.6158 26.4074 24.6094C24.8829 24.603 23.7443 23.4586 23.7507 21.9392C23.757 20.4198 24.9051 19.2851 26.4295 19.2915C27.8269 19.2974 29.0925 20.4423 29.0862 21.9617Z" fill="white"/>
<path d="M51.6985 22.0564C51.6922 23.5758 50.5441 24.7105 49.0197 24.7041C47.4952 24.6977 46.3566 23.5533 46.363 22.0339C46.3693 20.5145 47.5174 19.3798 49.0418 19.3862C50.5662 19.3926 51.7048 20.537 51.6985 22.0564Z" fill="white"/>
<path d="M74.4383 22.1521C74.4319 23.6715 73.2839 24.8062 71.7594 24.7998C70.235 24.7934 69.0964 23.649 69.1027 22.1296C69.109 20.6102 70.2571 19.4755 71.7815 19.4819C73.306 19.4883 74.4446 20.6327 74.4383 22.1521Z" fill="white"/>
<path d="M97.1795 22.2478C97.1731 23.7672 96.0251 24.9019 94.5006 24.8955C92.9762 24.8891 91.8376 23.7447 91.8439 22.2253C91.8502 20.706 92.9983 19.5712 94.5228 19.5776C95.9202 19.5835 97.1858 20.7284 97.1795 22.2478Z" fill="white"/>
<path d="M119.918 22.3435C119.911 23.8629 118.763 24.9976 117.239 24.9912C115.714 24.9848 114.576 23.8404 114.582 22.3211C114.589 20.8017 115.737 19.6669 117.261 19.6733C118.785 19.6797 119.924 20.8241 119.918 22.3435Z" fill="white"/>
<path d="M142.53 22.4382C142.524 23.9576 141.376 25.0924 139.851 25.0859C138.327 25.0795 137.188 23.9352 137.195 22.4158C137.201 20.8964 138.349 19.7616 139.873 19.7681C141.398 19.7745 142.536 20.9188 142.53 22.4382Z" fill="white"/>
<path d="M165.27 22.5339C165.263 24.0533 164.115 25.1881 162.591 25.1816C161.067 25.1752 159.928 24.0309 159.934 22.5115C159.941 20.9921 161.089 19.8573 162.613 19.8638C164.138 19.8702 165.276 21.0145 165.27 22.5339Z" fill="white"/>
<path d="M6.11208 78.2097C6.10576 79.7291 4.95769 80.8638 3.43324 80.8574C1.9088 80.851 0.770211 79.7067 0.776533 78.1873C0.782856 76.6679 1.93093 75.5331 3.45537 75.5395C4.97982 75.546 6.11788 76.8169 6.11208 78.2097Z" fill="white"/>
<path d="M28.8518 78.3054C28.8455 79.8248 27.6974 80.9595 26.173 80.9531C24.6485 80.9467 23.51 79.8024 23.5163 78.283C23.5226 76.7636 24.6707 75.6288 26.1951 75.6352C27.5925 75.6411 28.8576 76.9126 28.8518 78.3054Z" fill="white"/>
<path d="M51.4641 78.4011C51.4578 79.9205 50.3097 81.0552 48.7853 81.0488C47.2608 81.0424 46.1223 79.8981 46.1286 78.3787C46.1349 76.8593 47.283 75.7245 48.8074 75.7309C50.3319 75.7374 51.4699 77.0083 51.4641 78.4011Z" fill="white"/>
<path d="M74.2053 78.4968C74.199 80.0162 73.051 81.1509 71.5265 81.1445C70.0021 81.1381 68.8635 79.9938 68.8698 78.4744C68.8761 76.955 70.0242 75.8202 71.5486 75.8267C73.0731 75.8331 74.2111 77.104 74.2053 78.4968Z" fill="white"/>
<path d="M96.9451 78.5915C96.9388 80.1109 95.7907 81.2457 94.2663 81.2393C92.7418 81.2328 91.6032 80.0885 91.6095 78.5691C91.6159 77.0497 92.7639 75.915 94.2884 75.9214C95.6858 75.9273 96.9509 77.1988 96.9451 78.5915Z" fill="white"/>
<path d="M119.683 78.6872C119.677 80.2066 118.529 81.3414 117.005 81.335C115.48 81.3285 114.341 80.1842 114.348 78.6648C114.354 77.1454 115.502 76.0107 117.027 76.0171C118.551 76.0235 119.689 77.2945 119.683 78.6872Z" fill="white"/>
<path d="M142.297 78.7829C142.291 80.3023 141.143 81.4371 139.618 81.4307C138.094 81.4242 136.955 80.2799 136.962 78.7605C136.968 77.2411 138.116 76.1064 139.64 76.1128C141.165 76.1192 142.303 77.3902 142.297 78.7829Z" fill="white"/>
<path d="M165.035 78.8786C165.029 80.398 163.881 81.5328 162.357 81.5264C160.832 81.52 159.694 80.3756 159.7 78.8562C159.706 77.3368 160.854 76.2021 162.379 76.2085C163.903 76.2149 165.041 77.4859 165.035 78.8786Z" fill="white"/>
<path d="M6.03347 97.0759C6.02715 98.5953 4.87907 99.73 3.35463 99.7236C1.83019 99.7172 0.691597 98.5729 0.69792 97.0535C0.704242 95.5341 1.85232 94.3993 3.37676 94.4058C4.9012 94.4122 6.03979 95.5565 6.03347 97.0759Z" fill="white"/>
<path d="M28.7732 97.1716C28.7669 98.691 27.6188 99.8257 26.0944 99.8193C24.5699 99.8129 23.4313 98.6686 23.4377 97.1492C23.444 95.6298 24.5921 94.495 26.1165 94.5015C27.5139 94.5073 28.7795 95.6522 28.7732 97.1716Z" fill="white"/>
<path d="M51.3855 97.2663C51.3792 98.7857 50.2311 99.9205 48.7067 99.9141C47.1822 99.9076 46.0436 98.7633 46.05 97.2439C46.0563 95.7245 47.2044 94.5898 48.7288 94.5962C50.2533 94.6026 51.3918 95.7469 51.3855 97.2663Z" fill="white"/>
<path d="M71.4464 100.01C72.9198 100.016 74.1192 98.8305 74.1253 97.362C74.1314 95.8936 72.9419 94.6981 71.4686 94.6919C69.9952 94.6857 68.7958 95.8711 68.7897 97.3396C68.7836 98.8081 69.9731 100.004 71.4464 100.01Z" fill="white"/>
<path d="M96.8655 97.4577C96.8592 98.9771 95.7111 100.112 94.1867 100.105C92.6622 100.099 91.5236 98.9547 91.53 97.4353C91.5363 95.9159 92.6843 94.7812 94.2088 94.7876C95.6062 94.7935 96.8718 95.9384 96.8655 97.4577Z" fill="white"/>
<path d="M119.605 97.5534C119.598 99.0728 118.45 100.208 116.926 100.201C115.401 100.195 114.263 99.0504 114.269 97.531C114.276 96.0116 115.424 94.8769 116.948 94.8833C118.472 94.8897 119.611 96.0341 119.605 97.5534Z" fill="white"/>
<path d="M142.219 97.6482C142.212 99.1676 141.064 100.302 139.54 100.296C138.015 100.289 136.877 99.1451 136.883 97.6257C136.889 96.1063 138.037 94.9716 139.562 94.978C141.086 94.9844 142.225 96.1288 142.219 97.6482Z" fill="white"/>
<path d="M162.279 100.392C163.753 100.398 164.952 99.2124 164.958 97.7439C164.964 96.2754 163.775 95.0799 162.302 95.0737C160.828 95.0675 159.629 96.2529 159.623 97.7214C159.617 99.1899 160.806 100.385 162.279 100.392Z" fill="white"/>
<path d="M5.95486 115.941C5.94853 117.461 4.80046 118.595 3.27602 118.589C1.75157 118.582 0.612984 117.438 0.619307 115.919C0.625629 114.399 1.7737 113.265 3.29815 113.271C4.82259 113.277 5.96118 114.422 5.95486 115.941Z" fill="white"/>
<path d="M28.6946 116.037C28.6883 117.556 27.5402 118.691 26.0158 118.685C24.4913 118.678 23.3527 117.534 23.3591 116.014C23.3654 114.495 24.5134 113.36 26.0379 113.367C27.4353 113.373 28.7009 114.517 28.6946 116.037Z" fill="white"/>
<path d="M51.3069 116.133C51.3006 117.652 50.1525 118.787 48.6281 118.78C47.1036 118.774 45.965 117.63 45.9714 116.11C45.9777 114.591 47.1258 113.456 48.6502 113.462C50.1746 113.469 51.3132 114.613 51.3069 116.133Z" fill="white"/>
<path d="M74.0467 116.228C74.0403 117.748 72.8923 118.882 71.3678 118.876C69.8434 118.87 68.7048 117.725 68.7111 116.206C68.7174 114.686 69.8655 113.552 71.3899 113.558C72.9144 113.565 74.053 114.709 74.0467 116.228Z" fill="white"/>
<path d="M96.7864 116.324C96.7801 117.843 95.632 118.978 94.1076 118.972C92.5831 118.965 91.4445 117.821 91.4508 116.302C91.4572 114.782 92.6052 113.647 94.1297 113.654C95.5271 113.66 96.7927 114.805 96.7864 116.324Z" fill="white"/>
<path d="M119.526 116.42C119.52 117.939 118.372 119.074 116.847 119.067C115.323 119.061 114.184 117.917 114.191 116.397C114.197 114.878 115.345 113.743 116.869 113.75C118.394 113.756 119.532 114.9 119.526 116.42Z" fill="white"/>
<path d="M142.14 116.514C142.134 118.034 140.986 119.169 139.461 119.162C137.937 119.156 136.798 118.011 136.804 116.492C136.811 114.973 137.959 113.838 139.483 113.844C141.008 113.851 142.146 114.995 142.14 116.514Z" fill="white"/>
<path d="M164.88 116.61C164.873 118.13 163.725 119.264 162.201 119.258C160.676 119.251 159.538 118.107 159.544 116.588C159.55 115.068 160.699 113.934 162.223 113.94C163.747 113.946 164.886 115.091 164.88 116.61Z" fill="white"/>
<path d="M5.87722 134.68C5.8709 136.2 4.72282 137.335 3.19838 137.328C1.67394 137.322 0.535347 136.177 0.54167 134.658C0.547992 133.139 1.69607 132.004 3.22051 132.01C4.74495 132.017 5.88302 133.288 5.87722 134.68Z" fill="white"/>
<path d="M28.617 134.776C28.6106 136.296 27.4626 137.43 25.9381 137.424C24.4137 137.417 23.2751 136.273 23.2814 134.754C23.2877 133.234 24.4358 132.1 25.9603 132.106C27.3577 132.112 28.6228 133.383 28.617 134.776Z" fill="white"/>
<path d="M51.2293 134.872C51.2229 136.391 50.0749 137.526 48.5504 137.52C47.026 137.513 45.8874 136.369 45.8937 134.849C45.9 133.33 47.0481 132.195 48.5726 132.202C50.097 132.208 51.2351 133.479 51.2293 134.872Z" fill="white"/>
<path d="M73.9705 134.968C73.9642 136.487 72.8161 137.622 71.2916 137.615C69.7672 137.609 68.6286 136.464 68.6349 134.945C68.6413 133.426 69.7893 132.291 71.3138 132.297C72.8382 132.304 73.9763 133.575 73.9705 134.968Z" fill="white"/>
<path d="M96.7088 135.063C96.7024 136.583 95.5544 137.717 94.0299 137.711C92.5055 137.705 91.3669 136.56 91.3732 135.041C91.3795 133.521 92.5276 132.387 94.0521 132.393C95.4495 132.399 96.7146 133.67 96.7088 135.063Z" fill="white"/>
<path d="M119.448 135.158C119.442 136.677 118.294 137.812 116.769 137.806C115.245 137.799 114.106 136.655 114.112 135.136C114.119 133.616 115.267 132.481 116.791 132.488C118.316 132.494 119.454 133.765 119.448 135.158Z" fill="white"/>
<path d="M142.06 135.254C142.054 136.773 140.906 137.908 139.381 137.901C137.857 137.895 136.718 136.751 136.725 135.231C136.731 133.712 137.879 132.577 139.404 132.583C140.928 132.59 142.066 133.861 142.06 135.254Z" fill="white"/>
<path d="M164.8 135.349C164.794 136.869 163.646 138.003 162.121 137.997C160.597 137.991 159.458 136.846 159.465 135.327C159.471 133.808 160.619 132.673 162.143 132.679C163.668 132.686 164.806 133.957 164.8 135.349Z" fill="white"/>
</g>
<defs>
<clipPath id="clip0_2734_3122">
<rect width="187" height="137" fill="white" transform="matrix(0.999991 0.00420621 -0.00416118 0.999991 1.10059 0.318359)"/>
</clipPath>
</defs>
</svg>
