<svg width="286" height="286" viewBox="0 0 286 286" fill="none" xmlns="http://www.w3.org/2000/svg">
<g opacity="0.2" clip-path="url(#clip0_2734_3022)">
<path d="M143.278 0.597691C64.7254 0.26728 0.917222 63.5437 0.590348 142.096C0.264285 220.454 63.5428 284.46 142.095 284.79C220.453 285.12 284.456 221.844 284.783 143.292C284.915 64.7383 221.635 0.927282 143.278 0.597691ZM142.133 275.629C68.6488 275.32 9.44577 215.619 9.75156 142.135C10.0573 68.6502 69.7551 9.44981 143.24 9.7589C216.724 10.068 275.927 69.7685 275.622 143.253C275.317 216.543 215.423 275.937 142.133 275.629Z" fill="white"/>
<path d="M143.151 31.2006C81.7519 30.9423 31.6449 80.6318 31.3894 142.031C31.1339 203.431 80.8256 253.54 142.225 253.798C203.625 254.057 253.731 204.562 253.986 143.163C254.243 81.5681 204.551 31.4588 143.151 31.2006ZM142.296 236.841C90.2523 236.622 48.1308 194.146 48.3474 142.103C48.5639 90.0592 91.0374 47.9397 143.081 48.1586C195.124 48.3775 237.246 90.8529 237.029 142.896C236.813 194.94 194.339 237.059 142.296 236.841Z" fill="white"/>
<path d="M142.948 80.1245C108.447 79.9794 80.2616 107.93 80.1181 142.43C79.9745 176.931 107.731 205.117 142.427 205.263C176.928 205.408 205.113 177.458 205.256 142.957C205.205 108.455 177.448 80.2696 142.948 80.1245ZM142.548 176.22C124.03 176.142 109.084 161.07 109.161 142.553C109.238 124.035 124.309 109.09 142.827 109.167C161.344 109.245 176.29 124.317 176.213 142.835C176.136 161.352 161.065 176.298 142.548 176.22Z" fill="white"/>
</g>
<defs>
<clipPath id="clip0_2734_3022">
<rect width="284" height="284" fill="white" transform="matrix(0.999991 0.00420621 -0.00416118 0.999991 1.18164 0)"/>
</clipPath>
</defs>
</svg>
