<svg width="162" height="139" viewBox="0 0 162 139" fill="none" xmlns="http://www.w3.org/2000/svg">
<g opacity="0.8" clip-path="url(#clip0_2234_8808)">
<path d="M6.54211 40.642C6.5357 42.1614 5.38756 43.2962 3.86312 43.2899C2.33868 43.2836 1.20015 42.1393 1.20656 40.6199C1.21297 39.1005 2.36111 37.9657 3.88555 37.972C5.40999 37.9783 6.54798 39.2492 6.54211 40.642Z" fill="white"/>
<path d="M29.2819 40.7358C29.2754 42.2552 28.1273 43.39 26.6029 43.3836C25.0784 43.3773 23.9399 42.233 23.9463 40.7136C23.9527 39.1942 25.1009 38.0594 26.6253 38.0658C28.0227 38.0716 29.2877 39.343 29.2819 40.7358Z" fill="white"/>
<path d="M51.8942 40.8295C51.8878 42.3489 50.7396 43.4837 49.2152 43.4774C47.6907 43.4711 46.5522 42.3268 46.5586 40.8074C46.565 39.288 47.7132 38.1532 49.2376 38.1595C50.762 38.1658 51.9 39.4367 51.8942 40.8295Z" fill="white"/>
<path d="M74.6339 40.9242C74.6275 42.4436 73.4794 43.5784 71.9549 43.5721C70.4305 43.5658 69.2919 42.4215 69.2984 40.9021C69.3048 39.3827 70.4529 38.2479 71.9774 38.2542C73.5018 38.2606 74.6398 39.5315 74.6339 40.9242Z" fill="white"/>
<path d="M97.3737 41.019C97.3672 42.5384 96.2191 43.6732 94.6947 43.6668C93.1702 43.6605 92.0317 42.5162 92.0381 40.9968C92.0445 39.4774 93.1926 38.3426 94.7171 38.349C96.1145 38.3548 97.3795 39.6262 97.3737 41.019Z" fill="white"/>
<path d="M120.113 41.1127C120.107 42.6321 118.959 43.7669 117.434 43.7606C115.91 43.7543 114.771 42.61 114.778 41.0906C114.784 39.5712 115.932 38.4364 117.457 38.4427C118.981 38.449 120.119 39.7199 120.113 41.1127Z" fill="white"/>
<path d="M142.726 41.2065C142.719 42.7259 141.571 43.8607 140.047 43.8543C138.522 43.848 137.384 42.7037 137.39 41.1843C137.397 39.6649 138.545 38.5301 140.069 38.5365C141.594 38.5428 142.732 39.8137 142.726 41.2065Z" fill="white"/>
<path d="M165.465 41.3012C165.459 42.8206 164.311 43.9554 162.786 43.9491C161.262 43.9427 160.123 42.7984 160.13 41.2791C160.136 39.7597 161.284 38.6249 162.809 38.6312C164.333 38.6375 165.471 39.9084 165.465 41.3012Z" fill="white"/>
<path d="M6.46252 59.5073C6.45611 61.0267 5.30797 62.1615 3.78353 62.1551C2.25909 62.1488 1.12056 61.0045 1.12697 59.4851C1.13338 57.9657 2.28152 56.8309 3.80596 56.8372C5.3304 56.8436 6.46893 57.9879 6.46252 59.5073Z" fill="white"/>
<path d="M29.2023 59.602C29.1959 61.1214 28.0477 62.2562 26.5233 62.2499C24.9988 62.2435 23.8603 61.0992 23.8667 59.5798C23.8731 58.0604 25.0213 56.9256 26.5457 56.932C27.9431 56.9378 29.2087 58.0826 29.2023 59.602Z" fill="white"/>
<path d="M51.8146 59.6957C51.8082 61.2151 50.66 62.3499 49.1356 62.3436C47.6111 62.3373 46.4726 61.193 46.479 59.6736C46.4854 58.1542 47.6336 57.0194 49.158 57.0257C50.6825 57.032 51.821 58.1763 51.8146 59.6957Z" fill="white"/>
<path d="M74.5543 59.7895C74.5479 61.3089 73.3998 62.4437 71.8753 62.4374C70.3509 62.431 69.2124 61.2867 69.2188 59.7673C69.2252 58.2479 70.3733 57.1131 71.8978 57.1195C73.4222 57.1258 74.5607 58.2701 74.5543 59.7895Z" fill="white"/>
<path d="M97.2941 59.8842C97.2877 61.4036 96.1395 62.5384 94.6151 62.5321C93.0906 62.5258 91.9521 61.3815 91.9585 59.8621C91.9649 58.3427 93.1131 57.2079 94.6375 57.2142C96.0349 57.22 97.3005 58.3648 97.2941 59.8842Z" fill="white"/>
<path d="M120.034 59.9789C120.027 61.4983 118.879 62.6331 117.355 62.6268C115.83 62.6205 114.692 61.4762 114.698 59.9568C114.705 58.4374 115.853 57.3026 117.377 57.3089C118.902 57.3152 120.04 58.4595 120.034 59.9789Z" fill="white"/>
<path d="M142.646 60.0727C142.64 61.5921 141.492 62.7269 139.967 62.7206C138.443 62.7142 137.304 61.5699 137.311 60.0505C137.317 58.5312 138.465 57.3963 139.99 57.4027C141.514 57.409 142.653 58.5533 142.646 60.0727Z" fill="white"/>
<path d="M165.386 60.1664C165.379 61.6858 164.231 62.8206 162.707 62.8143C161.182 62.808 160.044 61.6637 160.05 60.1443C160.057 58.6249 161.205 57.4901 162.729 57.4964C164.254 57.5027 165.392 58.647 165.386 60.1664Z" fill="white"/>
<path d="M6.7008 3.03655C6.69439 4.55595 5.54626 5.69075 4.02181 5.68442C2.49737 5.6781 1.35884 4.5338 1.36525 3.01441C1.37166 1.49501 2.5198 0.360214 4.04424 0.36654C5.56868 0.372867 6.70721 1.51716 6.7008 3.03655Z" fill="white"/>
<path d="M29.4405 3.13128C29.4341 4.65067 28.286 5.78548 26.7616 5.77915C25.2371 5.77282 24.0986 4.62853 24.105 3.10914C24.1114 1.58974 25.2595 0.45494 26.784 0.461267C28.1814 0.467066 29.447 1.61188 29.4405 3.13128Z" fill="white"/>
<path d="M52.0529 3.22503C52.0464 4.74442 50.8983 5.87923 49.3739 5.8729C47.8494 5.86657 46.7109 4.72228 46.7173 3.20289C46.7237 1.68349 47.9989 0.549217 49.3963 0.555017C50.9207 0.561343 52.0593 1.70563 52.0529 3.22503Z" fill="white"/>
<path d="M74.7926 3.31878C74.7862 4.83817 73.6381 5.97298 72.1136 5.96665C70.5892 5.96032 69.4506 4.81603 69.457 3.29664C69.4635 1.77724 70.7386 0.642967 72.136 0.648767C73.5334 0.654566 74.799 1.79938 74.7926 3.31878Z" fill="white"/>
<path d="M97.5323 3.41351C97.5259 4.9329 96.3778 6.0677 94.8534 6.06138C93.3289 6.05505 92.1904 4.91076 92.1968 3.39136C92.2032 1.87197 93.3513 0.737167 94.8758 0.743493C96.2732 0.749292 97.5387 1.89411 97.5323 3.41351Z" fill="white"/>
<path d="M120.272 3.50823C120.266 5.02763 119.118 6.16243 117.593 6.1561C116.069 6.14978 114.93 5.00548 114.937 3.48609C114.943 1.96669 116.091 0.831893 117.616 0.83822C119.14 0.844546 120.278 1.98884 120.272 3.50823Z" fill="white"/>
<path d="M142.884 3.60198C142.878 5.12138 141.73 6.25618 140.205 6.24985C138.681 6.24353 137.542 5.09923 137.549 3.57984C137.555 2.06044 138.703 0.925643 140.228 0.93197C141.752 0.938296 142.891 2.08259 142.884 3.60198Z" fill="white"/>
<path d="M165.624 3.69573C165.618 5.21513 164.47 6.34993 162.945 6.3436C161.421 6.33728 160.282 5.19298 160.289 3.67359C160.295 2.15419 161.443 1.01939 162.968 1.02572C164.492 1.03205 165.631 2.17634 165.624 3.69573Z" fill="white"/>
<path d="M6.62121 21.9028C6.6148 23.4222 5.46667 24.557 3.94222 24.5506C2.41778 24.5443 1.27979 23.2734 1.28566 21.8806C1.29207 20.3612 2.44021 19.2264 3.96465 19.2328C5.48909 19.2391 6.62762 20.3834 6.62121 21.9028Z" fill="white"/>
<path d="M29.361 21.9965C29.3546 23.5159 28.2064 24.6507 26.682 24.6444C25.1575 24.6381 24.019 23.4938 24.0254 21.9744C24.0318 20.455 25.18 19.3202 26.7044 19.3265C28.1018 19.3323 29.3674 20.4771 29.361 21.9965Z" fill="white"/>
<path d="M51.9733 22.0903C51.9669 23.6097 50.8187 24.7445 49.2943 24.7381C47.7698 24.7318 46.6313 23.5875 46.6377 22.0681C46.6441 20.5487 47.7923 19.4139 49.3167 19.4203C50.8411 19.4266 51.9797 20.5709 51.9733 22.0903Z" fill="white"/>
<path d="M74.713 22.185C74.7066 23.7044 73.5585 24.8392 72.034 24.8329C70.5096 24.8265 69.371 23.6822 69.3775 22.1628C69.3839 20.6435 70.532 19.5087 72.0565 19.515C73.5809 19.5213 74.7194 20.6656 74.713 22.185Z" fill="white"/>
<path d="M97.4528 22.2797C97.4463 23.7991 96.2982 24.9339 94.7738 24.9276C93.2493 24.9213 92.1108 23.777 92.1172 22.2576C92.1236 20.7382 93.2717 19.6034 94.7962 19.6097C96.1936 19.6155 97.4592 20.7603 97.4528 22.2797Z" fill="white"/>
<path d="M120.192 22.3735C120.186 23.8929 119.038 25.0277 117.514 25.0213C115.989 25.015 114.851 23.8707 114.857 22.3513C114.863 20.8319 116.011 19.6971 117.536 19.7035C119.06 19.7098 120.199 20.8541 120.192 22.3735Z" fill="white"/>
<path d="M142.805 22.4672C142.798 23.9866 141.65 25.1214 140.126 25.1151C138.601 25.1088 137.463 23.9645 137.469 22.4451C137.476 20.9257 138.624 19.7909 140.148 19.7972C141.673 19.8035 142.811 20.9478 142.805 22.4672Z" fill="white"/>
<path d="M165.545 22.5619C165.538 24.0813 164.39 25.2161 162.866 25.2098C161.341 25.2035 160.203 24.0592 160.209 22.5398C160.215 21.0204 161.364 19.8856 162.888 19.8919C164.412 19.8983 165.551 21.0425 165.545 22.5619Z" fill="white"/>
<path d="M6.38342 78.2465C6.37701 79.7659 5.22887 80.9007 3.70443 80.8944C2.17999 80.8881 1.04146 79.7438 1.04787 78.2244C1.05428 76.705 2.20241 75.5702 3.72686 75.5765C5.2513 75.5828 6.38929 76.8537 6.38342 78.2465Z" fill="white"/>
<path d="M29.1232 78.3412C29.1168 79.8606 27.9686 80.9954 26.4442 80.9891C24.9197 80.9828 23.7812 79.8385 23.7876 78.3191C23.794 76.7997 24.9422 75.6649 26.4666 75.6712C27.864 75.677 29.129 76.9485 29.1232 78.3412Z" fill="white"/>
<path d="M51.7355 78.435C51.7291 79.9544 50.5809 81.0892 49.0565 81.0829C47.532 81.0765 46.3935 79.9322 46.3999 78.4128C46.4063 76.8935 47.5545 75.7587 49.0789 75.765C50.6033 75.7713 51.7413 77.0422 51.7355 78.435Z" fill="white"/>
<path d="M74.4752 78.5297C74.4688 80.0491 73.3207 81.1839 71.7962 81.1776C70.2718 81.1713 69.1333 80.027 69.1397 78.5076C69.1461 76.9882 70.2942 75.8534 71.8187 75.8597C73.3431 75.866 74.4811 77.1369 74.4752 78.5297Z" fill="white"/>
<path d="M97.215 78.6235C97.2086 80.1429 96.0604 81.2777 94.536 81.2713C93.0115 81.265 91.873 80.1207 91.8794 78.6013C91.8858 77.0819 93.034 75.9471 94.5584 75.9535C95.9558 75.9593 97.2208 77.2307 97.215 78.6235Z" fill="white"/>
<path d="M119.955 78.7182C119.948 80.2376 118.8 81.3724 117.276 81.3661C115.751 81.3597 114.613 80.2154 114.619 78.696C114.626 77.1767 115.774 76.0419 117.298 76.0482C118.823 76.0545 119.961 77.3254 119.955 78.7182Z" fill="white"/>
<path d="M142.567 78.8119C142.561 80.3313 141.412 81.4661 139.888 81.4598C138.364 81.4535 137.225 80.3092 137.231 78.7898C137.238 77.2704 138.386 76.1356 139.91 76.1419C141.435 76.1483 142.573 77.4192 142.567 78.8119Z" fill="white"/>
<path d="M165.307 78.9067C165.3 80.4261 164.152 81.5609 162.628 81.5545C161.103 81.5482 159.965 80.4039 159.971 78.8845C159.978 77.3651 161.126 76.2303 162.65 76.2367C164.175 76.243 165.313 77.5139 165.307 78.9067Z" fill="white"/>
<path d="M6.30383 97.1127C6.29742 98.6321 5.14928 99.7669 3.62484 99.7606C2.1004 99.7543 0.96187 98.61 0.968278 97.0906C0.974686 95.5712 2.12282 94.4364 3.64727 94.4427C5.17171 94.449 6.31024 95.5933 6.30383 97.1127Z" fill="white"/>
<path d="M29.0436 97.2065C29.0372 98.7259 27.889 99.8607 26.3646 99.8543C24.8401 99.848 23.7016 98.7037 23.708 97.1843C23.7144 95.6649 24.8626 94.5301 26.387 94.5365C27.7844 94.5423 29.05 95.6871 29.0436 97.2065Z" fill="white"/>
<path d="M51.6559 97.3002C51.6495 98.8196 50.5013 99.9544 48.9769 99.9481C47.4524 99.9418 46.3139 98.7975 46.3203 97.2781C46.3267 95.7587 47.4749 94.6239 48.9993 94.6302C50.5238 94.6365 51.6623 95.7808 51.6559 97.3002Z" fill="white"/>
<path d="M71.7166 100.043C73.19 100.049 74.3894 98.8634 74.3956 97.3949C74.4018 95.9265 73.2124 94.7311 71.7391 94.7249C70.2657 94.7188 69.0663 95.9043 69.0601 97.3728C69.0539 98.8413 70.2433 100.037 71.7166 100.043Z" fill="white"/>
<path d="M97.1354 97.4897C97.129 99.0091 95.9808 100.144 94.4564 100.138C92.9319 100.131 91.7934 98.9869 91.7998 97.4675C91.8062 95.9481 92.9544 94.8133 94.4788 94.8197C95.8762 94.8255 97.1418 95.9703 97.1354 97.4897Z" fill="white"/>
<path d="M119.875 97.5834C119.869 99.1028 118.721 100.238 117.196 100.231C115.672 100.225 114.533 99.0807 114.54 97.5613C114.546 96.0419 115.694 94.9071 117.219 94.9134C118.743 94.9197 119.882 96.064 119.875 97.5834Z" fill="white"/>
<path d="M142.487 97.6772C142.481 99.1966 141.333 100.331 139.808 100.325C138.284 100.319 137.145 99.1744 137.152 97.655C137.158 96.1356 138.306 95.0008 139.831 95.0072C141.355 95.0135 142.494 96.1578 142.487 97.6772Z" fill="white"/>
<path d="M162.548 100.42C164.022 100.426 165.221 99.2404 165.227 97.7719C165.233 96.3034 164.044 95.108 162.571 95.1019C161.097 95.0958 159.898 96.2813 159.892 97.7498C159.885 99.2182 161.075 100.414 162.548 100.42Z" fill="white"/>
<path d="M6.22424 115.978C6.21783 117.497 5.06969 118.632 3.54525 118.626C2.02081 118.62 0.88228 117.475 0.888688 115.956C0.895096 114.436 2.04323 113.302 3.56768 113.308C5.09212 113.314 6.23065 114.459 6.22424 115.978Z" fill="white"/>
<path d="M28.964 116.073C28.9576 117.592 27.8094 118.727 26.285 118.721C24.7606 118.714 23.622 117.57 23.6284 116.051C23.6348 114.531 24.783 113.396 26.3074 113.403C27.7048 113.408 28.9704 114.553 28.964 116.073Z" fill="white"/>
<path d="M51.5763 116.166C51.5699 117.686 50.4217 118.821 48.8973 118.814C47.3729 118.808 46.2343 117.664 46.2407 116.144C46.2471 114.625 47.3953 113.49 48.9197 113.496C50.4442 113.503 51.5827 114.647 51.5763 116.166Z" fill="white"/>
<path d="M74.316 116.261C74.3096 117.781 73.1615 118.915 71.6371 118.909C70.1126 118.903 68.9741 117.758 68.9805 116.239C68.9869 114.72 70.135 113.585 71.6595 113.591C73.1839 113.597 74.3224 114.742 74.316 116.261Z" fill="white"/>
<path d="M97.0558 116.355C97.0494 117.874 95.9012 119.009 94.3768 119.003C92.8523 118.996 91.7138 117.852 91.7202 116.333C91.7266 114.813 92.8748 113.679 94.3992 113.685C95.7966 113.691 97.0622 114.836 97.0558 116.355Z" fill="white"/>
<path d="M119.796 116.45C119.789 117.969 118.641 119.104 117.117 119.098C115.592 119.091 114.454 117.947 114.46 116.428C114.466 114.908 115.615 113.773 117.139 113.78C118.663 113.786 119.802 114.93 119.796 116.45Z" fill="white"/>
<path d="M142.408 116.543C142.401 118.063 141.253 119.198 139.729 119.191C138.204 119.185 137.066 118.041 137.072 116.521C137.079 115.002 138.227 113.867 139.751 113.873C141.276 113.88 142.414 115.024 142.408 116.543Z" fill="white"/>
<path d="M165.148 116.638C165.141 118.158 163.993 119.292 162.469 119.286C160.944 119.28 159.806 118.135 159.812 116.616C159.818 115.097 160.967 113.962 162.491 113.968C164.015 113.974 165.154 115.119 165.148 116.638Z" fill="white"/>
<path d="M6.14563 134.717C6.13922 136.237 4.99108 137.371 3.46664 137.365C1.94219 137.359 0.803667 136.214 0.810075 134.695C0.816483 133.176 1.96462 132.041 3.48906 132.047C5.01351 132.054 6.1515 133.324 6.14563 134.717Z" fill="white"/>
<path d="M28.8854 134.812C28.879 136.331 27.7308 137.466 26.2064 137.46C24.6819 137.453 23.5434 136.309 23.5498 134.79C23.5562 133.27 24.7044 132.136 26.2288 132.142C27.6262 132.148 28.8912 133.419 28.8854 134.812Z" fill="white"/>
<path d="M51.4972 134.906C51.4908 136.425 50.3426 137.56 48.8182 137.554C47.2938 137.547 46.1552 136.403 46.1616 134.884C46.168 133.364 47.3162 132.229 48.8406 132.236C50.3651 132.242 51.5031 133.513 51.4972 134.906Z" fill="white"/>
<path d="M74.2369 135C74.2305 136.52 73.0824 137.655 71.5579 137.648C70.0335 137.642 68.895 136.498 68.9014 134.978C68.9078 133.459 70.0559 132.324 71.5804 132.33C73.1048 132.337 74.2428 133.608 74.2369 135Z" fill="white"/>
<path d="M96.9767 135.094C96.9703 136.614 95.8221 137.748 94.2977 137.742C92.7732 137.736 91.6347 136.591 91.6411 135.072C91.6475 133.553 92.7957 132.418 94.3201 132.424C95.7175 132.43 96.9826 133.701 96.9767 135.094Z" fill="white"/>
<path d="M119.716 135.189C119.71 136.708 118.562 137.843 117.037 137.837C115.513 137.83 114.374 136.686 114.381 135.167C114.387 133.647 115.535 132.513 117.06 132.519C118.584 132.525 119.722 133.796 119.716 135.189Z" fill="white"/>
<path d="M142.329 135.283C142.322 136.802 141.174 137.937 139.65 137.931C138.125 137.924 136.987 136.78 136.993 135.261C137 133.741 138.148 132.606 139.672 132.613C141.197 132.619 142.335 133.89 142.329 135.283Z" fill="white"/>
<path d="M165.068 135.377C165.062 136.897 163.914 138.032 162.389 138.025C160.865 138.019 159.727 136.875 159.733 135.355C159.739 133.836 160.887 132.701 162.412 132.707C163.936 132.714 165.074 133.985 165.068 135.377Z" fill="white"/>
</g>
<defs>
<clipPath id="clip0_2234_8808">
<rect width="187" height="137" fill="white" transform="matrix(0.999991 0.00414999 -0.00421754 0.999991 1.37646 0.355469)"/>
</clipPath>
</defs>
</svg>
